<?xml version="1.0" standalone="no"?>
<!DOCTYPE svg PUBLIC "-//W3C//DTD SVG 1.1//EN" "http://www.w3.org/Graphics/SVG/1.1/DTD/svg11.dtd" >
<svg xmlns="http://www.w3.org/2000/svg">
    <defs>
        <font id="FGroteskBold-Regular">
            <font-face font-family="FGroteskBold-Regular"
                       units-per-em="1000"
                       ascent="967"
                       descent="-256"
                       bbox="-56 -256 1463 1110"
                    />
            <missing-glyph horiz-adv-x="0" />
            
            <glyph glyph-name="!" unicode="&#x21;" horiz-adv-x="236" d=" M91,0 L91,140 L235,140 L235,0 M230,450 L198,230 L128,230 L96,450 L90,722 L236,722"/> 
            <glyph glyph-name="&quot;" unicode="&#x22;" horiz-adv-x="321" d=" M56,510 L50,722 L168,722 L162,510 M209,510 L203,722 L321,722 L315,510"/> 
            <glyph glyph-name="#" unicode="&#x23;" horiz-adv-x="621" d=" M312,0 L347,165 L218,165 L184,0 L68,0 L103,165 L23,165 L23,273 L126,273 L158,425 L71,425 L71,534 L181,534 L216,695 L330,695 L296,534 L425,534 L460,695 L575,695 L541,534 L621,534 L621,425 L518,425 L486,273 L572,273 L572,165 L463,165 L429,0 M273,425 L241,273 L370,273 L402,425"/> 
            <glyph glyph-name="$" unicode="&#x24;" horiz-adv-x="587" d=" M375,-13 L375,-104 L275,-104 L275,-13 Q198,3 135.5,59 Q73,115 54,209 L183,259 Q212,153 275,128 L275,307 Q263,310 256,314 Q78,391 78,524 Q78,610 134.5,662 Q191,714 275,726 L275,800 L375,800 L375,726 Q448,714 503.5,666 Q559,618 587,553 L475,485 Q445,563 375,590 L375,420 L401,410 Q436,396 462.5,381 Q489,366 518.5,341.5 Q548,317 564.5,281.5 Q581,246 581,202 Q581,113 524,56.5 Q467,0 375,-13 M375,278 L375,123 Q439,140 439,201 Q439,252 375,278 M220,525 Q220,483 275,454 L275,593 Q220,578 220,525"/> 
            <glyph glyph-name="%" unicode="&#x25;" horiz-adv-x="764" d=" M27,536 Q27,613 70,664 Q113,715 186,715 Q256,715 300.5,667 Q345,619 345,539 Q345,456 301.5,405.5 Q258,355 186,355 Q111,355 69,404.5 Q27,454 27,536 M140,538 Q140,452 186,452 Q232,452 232,538 Q232,574 220.5,597 Q209,620 186,620 Q163,620 151.5,596 Q140,572 140,538 M447,166 Q447,243 489.5,294.5 Q532,346 605,346 Q675,346 719.5,297.5 Q764,249 764,169 Q764,86 720.5,36 Q677,-14 605,-14 Q531,-14 489,35 Q447,84 447,166 M559,168 Q559,83 605,83 Q651,83 651,168 Q651,251 605,251 Q582,251 570.5,226.5 Q559,202 559,168 M199,0 L480,695 L585,695 L308,0"/> 
            <glyph glyph-name="&amp;" unicode="&#x26;" horiz-adv-x="641" d=" M347,731 Q418,731 460.5,681 Q503,631 503,566 Q503,512 465.5,465.5 Q428,419 370,385 Q393,329 428,269 Q485,350 518,429 L620,360 Q585,274 504,164 Q514,143 536.5,127 Q559,111 582,111 Q612,111 641,119 L619,-3 Q578,-14 540,-14 Q514,-14 477,4 Q440,22 415,55 Q341,-14 261,-14 Q157,-14 101,52.5 Q45,119 45,206 Q45,275 85,324.5 Q125,374 207,422 Q176,496 176,545 Q176,575 184,605 Q192,635 210,664.5 Q228,694 263.5,712.5 Q299,731 347,731 M185,217 Q185,171 210.5,143 Q236,115 266,115 Q310,115 344,157 Q289,248 256,313 Q219,289 202,268 Q185,247 185,217 M383,567 Q383,587 372.5,601 Q362,615 344,615 Q328,615 316.5,602 Q305,589 305,569 Q305,533 324,488 Q383,525 383,567"/> 
            <glyph glyph-name="'" unicode="&#x27;" horiz-adv-x="168" d=" M56,510 L50,722 L168,722 L162,510"/> 
            <glyph glyph-name="(" unicode="&#x28;" horiz-adv-x="368" d=" M63,358 Q63,433 82,499 Q101,565 130,611 Q159,657 197,693 Q235,729 270.5,749.5 Q306,770 340,779 L368,702 Q351,695 330.5,682 Q310,669 282.5,641 Q255,613 233.5,576.5 Q212,540 197,482.5 Q182,425 182,358 Q182,291 197,232.5 Q212,174 233.5,136.5 Q255,99 282,69.5 Q309,40 329.5,26.5 Q350,13 367,6 L339,-72 Q296,-60 251,-28 Q206,4 162.5,55 Q119,106 91,185.5 Q63,265 63,358"/> 
            <glyph glyph-name=")" unicode="&#x29;" horiz-adv-x="315" d=" M315,358 Q315,265 287,185.5 Q259,106 215.5,55 Q172,4 127,-28 Q82,-60 39,-72 L11,6 Q28,13 48.5,26.5 Q69,40 96,69.5 Q123,99 144.5,136.5 Q166,174 181,232.5 Q196,291 196,358 Q196,425 181,482.5 Q166,540 144.5,576.5 Q123,613 95.5,641 Q68,669 47.5,682 Q27,695 10,702 L38,779 Q72,770 107.5,749.5 Q143,729 181,693 Q219,657 248,611 Q277,565 296,499 Q315,433 315,358"/> 
            <glyph glyph-name="*" unicode="&#x2A;" horiz-adv-x="433" d=" M280,319 L236,456 L194,319 L82,387 L184,492 L40,459 L40,585 L184,552 L84,658 L193,725 L236,584 L279,725 L388,658 L289,554 L433,585 L433,459 L288,492 L390,387"/> 
            <glyph glyph-name="+" unicode="&#x2B;" horiz-adv-x="497" d=" M38,247 L38,361 L209,361 L209,533 L326,533 L326,361 L497,361 L497,247 L326,247 L326,75 L209,75 L209,247"/> 
            <glyph glyph-name="," unicode="&#x2C;" horiz-adv-x="222" d=" M140,0 L63,25 L63,162 L222,162 L222,34 Q222,-39 174,-89.5 Q126,-140 50,-151 L50,-75 Q84,-70 109,-50 Q134,-30 140,0"/> 
            <glyph glyph-name="-" unicode="&#x2D;" horiz-adv-x="352" d=" M25,244 L48,368 L352,368 L330,244"/> 
            <glyph glyph-name="." unicode="&#x2E;" horiz-adv-x="231" d=" M75,0 L75,164 L231,164 L231,0"/> 
            <glyph glyph-name="/" unicode="&#x2F;" horiz-adv-x="424" d=" M35,-100 L311,722 L424,722 L148,-100"/> 
            <glyph glyph-name="0" unicode="&#x30;" horiz-adv-x="590" d=" M36,348 Q36,519 109.5,616.5 Q183,714 313,714 Q443,714 516.5,616.5 Q590,519 590,348 Q590,179 516.5,79.5 Q443,-20 313,-20 Q178,-20 107,77.5 Q36,175 36,348 M178,348 Q178,230 209,167 Q240,104 313,104 Q448,104 448,348 Q448,591 313,591 Q178,591 178,348"/> 
            <glyph glyph-name="1" unicode="&#x31;" horiz-adv-x="304" d=" M164,0 L164,498 L49,458 L49,572 Q172,591 201,695 L304,695 L304,0"/> 
            <glyph glyph-name="2" unicode="&#x32;" horiz-adv-x="571" d=" M307,714 Q421,714 496,653 Q571,592 571,487 Q571,441 554.5,402 Q538,363 506.5,333 Q475,303 446,283 Q417,263 377,242 Q326,215 281,193 Q203,155 197,130 L563,130 L563,0 L46,0 Q46,158 197,269 Q243,303 336,362 Q422,417 422,486 Q422,529 389.5,558 Q357,587 308,587 Q266,587 236.5,573 Q207,559 193,533.5 Q179,508 172.5,486 Q166,464 163,434 L33,466 Q42,568 112,641 Q182,714 307,714"/> 
            <glyph glyph-name="3" unicode="&#x33;" horiz-adv-x="588" d=" M574,505 Q574,453 546,415.5 Q518,378 479,359 Q525,341 556.5,303 Q588,265 588,208 Q588,103 508,41.5 Q428,-20 305,-20 Q196,-20 118,39 Q40,98 20,189 L148,233 Q157,181 198.5,145 Q240,109 304,109 Q368,109 404,135 Q440,161 440,206 Q440,281 334,290 Q295,294 242,290 L242,414 Q288,411 331,415 Q379,420 404.5,443 Q430,466 430,499 Q430,540 397.5,563.5 Q365,587 312,587 Q246,587 207,553.5 Q168,520 158,467 L38,517 Q59,607 131.5,660.5 Q204,714 312,714 Q426,714 500,657.5 Q574,601 574,505"/> 
            <glyph glyph-name="4" unicode="&#x34;" horiz-adv-x="581" d=" M159,269 L334,269 L334,506 Q257,391 159,269 M466,270 L581,270 L581,144 L468,144 L468,0 L331,0 L331,144 L27,144 L27,261 Q47,285 79.5,326 Q112,367 194,481.5 Q276,596 334,695 L466,695"/> 
            <glyph glyph-name="5" unicode="&#x35;" horiz-adv-x="584" d=" M226,570 L207,426 Q271,477 342,477 Q449,477 516.5,414.5 Q584,352 584,244 Q584,124 504,52 Q424,-20 298,-20 Q197,-20 123.5,35 Q50,90 30,169 L156,211 Q171,168 208,137.5 Q245,107 299,107 Q364,107 403,143.5 Q442,180 442,239 Q442,292 408.5,325.5 Q375,359 320,359 Q280,359 243.5,338.5 Q207,318 185,276 L71,289 L118,695 L535,695 L535,570"/> 
            <glyph glyph-name="6" unicode="&#x36;" horiz-adv-x="585" d=" M320,108 Q375,108 410.5,143 Q446,178 446,232 Q446,283 414,317 Q382,351 327,351 Q270,351 234.5,316.5 Q199,282 199,224 Q199,175 234,141.5 Q269,108 320,108 M45,331 Q45,496 123,605 Q201,714 345,714 Q417,714 478.5,679.5 Q540,645 574,585 L475,511 Q425,593 341,593 Q294,593 259,571.5 Q224,550 207,515.5 Q190,481 182.5,447.5 Q175,414 175,382 Q199,417 246.5,443 Q294,469 344,469 Q450,469 517.5,407 Q585,345 585,236 Q585,122 510.5,51 Q436,-20 321,-20 Q200,-20 125,68 Q45,162 45,331"/> 
            <glyph glyph-name="7" unicode="&#x37;" horiz-adv-x="564" d=" M39,564 L39,695 L564,695 L564,597 Q470,478 401,312.5 Q332,147 339,0 L187,0 Q185,78 208,164 Q231,250 270,326 Q309,402 345.5,459.5 Q382,517 419,564"/> 
            <glyph glyph-name="8" unicode="&#x38;" horiz-adv-x="592" d=" M268,714 Q364,714 408.5,702 Q453,690 491,666 Q529,642 551.5,600.5 Q574,559 574,506 Q574,464 550.5,426 Q527,388 492,364 Q537,340 564.5,296 Q592,252 592,202 Q592,96 513,38 Q434,-20 313,-20 Q192,-20 113,38 Q34,96 34,202 Q34,252 61.5,296 Q89,340 134,364 Q99,388 75.5,426 Q52,464 52,506 Q52,559 75.5,600.5 Q99,642 138.5,666 Q178,690 268,714 M313,105 Q377,105 412.5,133.5 Q448,162 448,203 Q448,244 412,273 Q376,302 313,302 Q250,302 214,273 Q178,244 178,203 Q178,161 214,133 Q250,105 313,105 M256,414 Q370,414 400.5,440.5 Q431,467 431,504 Q431,539 401,565 Q371,591 313,591 Q256,591 225.5,565 Q195,539 195,504 Q195,466 256,414"/> 
            <glyph glyph-name="9" unicode="&#x39;" horiz-adv-x="570" d=" M291,588 Q235,588 199.5,551.5 Q164,515 164,461 Q164,411 199,377 Q234,343 287,343 Q342,343 378,377.5 Q414,412 414,467 Q414,520 378.5,554 Q343,588 291,588 M570,364 Q570,287 552,219 Q534,151 498,97 Q462,43 402.5,11.5 Q343,-20 266,-20 Q195,-20 129.5,15.5 Q64,51 30,113 L124,193 Q178,104 271,104 Q315,104 349.5,125.5 Q384,147 403,180 Q422,213 431.5,246.5 Q441,280 441,310 Q415,272 369,248.5 Q323,225 270,225 Q169,225 96.5,289.5 Q24,354 24,458 Q24,573 99.5,643.5 Q175,714 286,714 Q395,714 468,646 Q570,550 570,364"/> 
            <glyph glyph-name=":" unicode="&#x3A;" horiz-adv-x="231" d=" M75,0 L75,164 L231,164 L231,0 M75,346 L75,510 L231,510 L231,346"/> 
            <glyph glyph-name=";" unicode="&#x3B;" horiz-adv-x="247" d=" M91,346 L91,510 L247,510 L247,346 M165,0 L91,25 L91,160 L247,160 L247,34 Q247,-39 199,-89.5 Q151,-140 75,-151 L75,-75 Q109,-70 134,-50 Q159,-30 165,0"/> 
            <glyph glyph-name="&lt;" unicode="&#x3C;" horiz-adv-x="494" d=" M494,27 L35,223 L35,315 L494,511 L494,391 L172,269 L494,147"/> 
            <glyph glyph-name="=" unicode="&#x3D;" horiz-adv-x="497" d=" M497,341 L38,341 L38,450 L497,450 M497,158 L38,158 L38,266 L497,266"/> 
            <glyph glyph-name="&gt;" unicode="&#x3E;" horiz-adv-x="497" d=" M497,222 L38,26 L38,146 L356,268 L38,390 L38,510 L497,314"/> 
            <glyph glyph-name="?" unicode="&#x3F;" horiz-adv-x="450" d=" M201,361 Q201,343 216.5,331.5 Q232,320 254,320 Q278,320 298,331.5 Q318,343 329.5,361 Q341,379 346.5,390.5 Q352,402 355,411 L450,351 Q429,292 375.5,250 Q322,208 252,208 Q179,208 129.5,249 Q80,290 80,359 Q80,458 214,514 L270,537 Q316,555 316,585 Q316,606 300.5,618 Q285,630 259,630 Q225,630 188.5,598 Q152,566 139,535 L56,615 Q74,659 130,700.5 Q186,742 256,742 Q336,742 387,701 Q438,660 438,587 Q438,483 297,430 L245,409 Q201,392 201,361 M186,0 L186,140 L330,140 L330,0"/> 
            <glyph glyph-name="@" unicode="&#x40;" horiz-adv-x="775" d=" M449,467 Q398,467 351.5,383.5 Q305,300 305,218 Q305,157 347,157 Q399,157 436,238 L490,405 Q492,429 480,448 Q468,467 449,467 M542,485 L586,543 L649,543 L530,167 Q529,161 532.5,157 Q536,153 541,153 Q587,153 639,244 Q691,335 691,438 Q691,541 639,592.5 Q587,644 489,644 Q430,644 369,613 Q308,582 257,528 Q206,474 173.5,392.5 Q141,311 141,219 Q141,103 204,37.5 Q267,-28 379,-28 Q476,-28 567.5,20.5 Q659,69 709,132 L765,73 Q700,-4 592.5,-56.5 Q485,-109 372,-109 Q225,-109 140.5,-23 Q56,63 56,222 Q56,347 111.5,461 Q167,575 270,648.5 Q373,722 496,722 Q620,722 697.5,646 Q775,570 775,430 Q775,347 739.5,261.5 Q704,176 641.5,118 Q579,60 510,60 Q482,60 462,79.5 Q442,99 443,129 Q386,60 317,60 Q202,60 202,215 Q202,290 235.5,369.5 Q269,449 328,504 Q387,559 451,559 Q482,559 507,539.5 Q532,520 542,485"/> 
            <glyph glyph-name="A" unicode="&#x41;" horiz-adv-x="655" d=" M226,158 L179,0 L20,0 L262,722 L420,722 L655,0 L492,0 L445,158 M406,292 L338,538 L267,292"/> 
            <glyph glyph-name="B" unicode="&#x42;" horiz-adv-x="679" d=" M419,587 L231,587 L231,430 L408,430 Q514,430 514,510 Q514,548 488,567.5 Q462,587 419,587 M670,521 Q670,467 639,426.5 Q608,386 567,372 Q611,353 645,310.5 Q679,268 679,211 Q679,114 609,57 Q539,0 422,0 L75,0 L75,722 L416,722 Q531,722 600.5,669 Q670,616 670,521 M231,138 L423,138 Q466,138 493,158 Q520,178 520,217 Q520,299 412,299 L231,299"/> 
            <glyph glyph-name="C" unicode="&#x43;" horiz-adv-x="705" d=" M575,259 L705,202 Q671,96 587.5,38 Q504,-20 391,-20 Q233,-20 139,83 Q45,186 45,358 Q45,529 140,635.5 Q235,742 395,742 Q504,742 581.5,683 Q659,624 691,522 L563,460 Q545,526 498.5,567 Q452,608 391,608 Q303,608 252.5,543 Q202,478 202,360 Q202,250 254,182.5 Q306,115 392,115 Q457,115 502,148.5 Q547,182 575,259"/> 
            <glyph glyph-name="D" unicode="&#x44;" horiz-adv-x="697" d=" M697,362 Q697,186 603,93 Q509,0 345,0 L75,0 L75,722 L372,722 Q522,722 609.5,631.5 Q697,541 697,362 M541,362 Q541,470 499,529 Q457,588 372,588 L231,588 L231,138 L360,138 Q541,138 541,362"/> 
            <glyph glyph-name="E" unicode="&#x45;" horiz-adv-x="669" d=" M75,0 L75,722 L651,722 L651,586 L230,586 L230,433 L599,433 L599,299 L230,299 L230,141 L669,141 L669,0"/> 
            <glyph glyph-name="F" unicode="&#x46;" horiz-adv-x="635" d=" M75,0 L75,722 L635,722 L635,585 L231,585 L231,422 L545,422 L545,287 L231,287 L231,0"/> 
            <glyph glyph-name="G" unicode="&#x47;" horiz-adv-x="713" d=" M564,241 L564,274 L393,274 L393,400 L713,400 L713,0 L640,0 L601,89 Q512,-20 377,-20 Q222,-20 133.5,82.5 Q45,185 45,360 Q45,532 143,637 Q241,742 399,742 Q507,742 587,689.5 Q667,637 702,541 L574,472 Q552,538 507,574.5 Q462,611 396,611 Q300,611 251,542.5 Q202,474 202,360 Q202,246 249.5,178.5 Q297,111 392,111 Q451,111 501.5,147 Q552,183 564,241"/> 
            <glyph glyph-name="H" unicode="&#x48;" horiz-adv-x="678" d=" M522,0 L522,307 L231,307 L231,0 L75,0 L75,722 L231,722 L231,448 L522,448 L522,722 L678,722 L678,0"/> 
            <glyph glyph-name="I" unicode="&#x49;" horiz-adv-x="241" d=" M85,0 L85,722 L241,722 L241,0"/> 
            <glyph glyph-name="J" unicode="&#x4A;" horiz-adv-x="451" d=" M294,187 L294,722 L451,722 L451,207 Q451,103 394,41.5 Q337,-20 223,-20 Q137,-20 83.5,31.5 Q30,83 30,170 L30,237 L173,237 L173,179 Q173,147 187.5,128.5 Q202,110 228,110 Q294,110 294,187"/> 
            <glyph glyph-name="K" unicode="&#x4B;" horiz-adv-x="683" d=" M229,0 L75,0 L75,722 L228,722 L228,391 L479,722 L668,722 L413,414 L683,0 L500,0 L310,303 L229,208"/> 
            <glyph glyph-name="L" unicode="&#x4C;" horiz-adv-x="598" d=" M230,722 L230,139 L598,139 L598,0 L75,0 L75,722"/> 
            <glyph glyph-name="M" unicode="&#x4D;" horiz-adv-x="818" d=" M672,524 L496,0 L391,0 L223,524 L223,0 L75,0 L75,722 L293,722 L443,249 L451,249 L605,722 L818,722 L818,0 L672,0"/> 
            <glyph glyph-name="N" unicode="&#x4E;" horiz-adv-x="685" d=" M685,0 L536,0 L225,511 L225,0 L75,0 L75,722 L254,722 L538,255 L538,722 L685,722"/> 
            <glyph glyph-name="O" unicode="&#x4F;" horiz-adv-x="741" d=" M45,359 Q45,531 142,636.5 Q239,742 394,742 Q548,742 644.5,636.5 Q741,531 741,359 Q741,183 643.5,81.5 Q546,-20 394,-20 Q235,-20 140,82.5 Q45,185 45,359 M202,359 Q202,247 250.5,179 Q299,111 394,111 Q481,111 532,174.5 Q583,238 583,359 Q583,470 535,540.5 Q487,611 394,611 Q302,611 252,542 Q202,473 202,359"/> 
            <glyph glyph-name="P" unicode="&#x50;" horiz-adv-x="667" d=" M75,0 L75,722 L423,722 Q533,722 600,663.5 Q667,605 667,505 Q667,402 599,340.5 Q531,279 415,279 L231,279 L231,0 M423,588 L231,588 L231,413 L405,413 Q456,413 484,436.5 Q512,460 512,502 Q512,542 486.5,565 Q461,588 423,588"/> 
            <glyph glyph-name="Q" unicode="&#x51;" horiz-adv-x="772" d=" M728,19 L772,-81 Q752,-99 714,-115 Q676,-131 631,-131 Q515,-131 488,-7 Q450,-20 394,-20 Q235,-20 140,83 Q45,186 45,360 Q45,532 142.5,637 Q240,742 394,742 Q548,742 644.5,637 Q741,532 741,360 Q741,248 699.5,163.5 Q658,79 583,33 Q584,13 600,-1 Q616,-15 640,-15 Q684,-15 728,19 M201,360 Q201,249 250.5,180 Q300,111 394,111 Q482,111 534.5,175.5 Q587,240 587,360 Q587,469 536.5,540 Q486,611 394,611 Q302,611 251.5,542 Q201,473 201,360"/> 
            <glyph glyph-name="R" unicode="&#x52;" horiz-adv-x="704" d=" M372,287 L231,287 L231,0 L75,0 L75,722 L432,722 Q542,722 608,667.5 Q674,613 674,520 Q674,461 633.5,415.5 Q593,370 535,345 Q643,301 648,187 Q654,45 704,0 L534,0 Q493,37 491,181 Q490,233 459,260 Q428,287 372,287 M432,587 L231,587 L231,420 L410,420 Q460,420 489,442.5 Q518,465 518,506 Q518,543 493.5,565 Q469,587 432,587"/> 
            <glyph glyph-name="S" unicode="&#x53;" horiz-adv-x="662" d=" M350,741 Q456,741 539,693 Q622,645 657,571 L544,493 Q542,498 537,506 Q532,514 514,534 Q496,554 475.5,569.5 Q455,585 421,598 Q387,611 350,611 Q287,611 253,589.5 Q219,568 219,531 Q219,475 323,448 Q396,428 470,413 Q552,396 607,349 Q662,302 662,215 Q662,110 579.5,45.5 Q497,-19 370,-19 Q322,-19 274.5,-8.5 Q227,2 177,25.5 Q127,49 88.5,96.5 Q50,144 33,209 L165,256 Q176,231 186,214.5 Q196,198 219.5,172 Q243,146 281.5,132 Q320,118 370,118 Q434,118 469,143 Q504,168 504,204 Q504,261 422,277 Q333,295 263,315 Q67,371 67,525 Q67,626 148,683.5 Q229,741 350,741"/> 
            <glyph glyph-name="T" unicode="&#x54;" horiz-adv-x="635" d=" M242,590 L10,590 L10,722 L635,722 L635,590 L398,590 L398,0 L242,0"/> 
            <glyph glyph-name="U" unicode="&#x55;" horiz-adv-x="680" d=" M75,258 L75,722 L233,722 L233,261 Q233,197 270.5,156 Q308,115 378,115 Q447,115 484.5,156.5 Q522,198 522,262 L522,722 L680,722 L680,266 Q680,128 599,54 Q518,-20 373,-20 Q247,-20 161,53 Q75,126 75,258"/> 
            <glyph glyph-name="V" unicode="&#x56;" horiz-adv-x="648" d=" M325,204 L482,722 L648,722 L399,0 L243,0 L10,722 L176,722"/> 
            <glyph glyph-name="W" unicode="&#x57;" horiz-adv-x="994" d=" M419,722 L585,722 L708,225 L829,722 L994,722 L780,0 L626,0 L503,522 L497,522 L371,0 L217,0 L10,722 L175,722 L295,225"/> 
            <glyph glyph-name="X" unicode="&#x58;" horiz-adv-x="648" d=" M10,0 L239,371 L31,722 L210,722 L330,495 L458,722 L636,722 L422,374 L648,0 L468,0 L331,249 L188,0"/> 
            <glyph glyph-name="Y" unicode="&#x59;" horiz-adv-x="659" d=" M253,0 L253,266 L6,722 L178,722 L332,399 L487,722 L659,722 L409,265 L409,0"/> 
            <glyph glyph-name="Z" unicode="&#x5A;" horiz-adv-x="648" d=" M35,0 L35,121 L442,586 L55,584 L55,720 L639,722 L639,597 L235,139 L648,141 L648,2"/> 
            <glyph glyph-name="[" unicode="&#x5B;" horiz-adv-x="366" d=" M100,-170 L100,803 L366,803 L366,698 L218,698 L218,-64 L366,-64 L366,-170"/> 
            <glyph glyph-name="\" unicode="&#x5C;" horiz-adv-x="424" d=" M148,722 L424,-100 L311,-100 L35,722"/> 
            <glyph glyph-name="]" unicode="&#x5D;" horiz-adv-x="276" d=" M276,803 L276,-170 L10,-170 L10,-64 L158,-64 L158,698 L10,698 L10,803"/> 
            <glyph glyph-name="^" unicode="&#x5E;" horiz-adv-x="520" d=" M330,722 L520,402 L385,402 L273,597 L164,402 L31,402 L222,722"/> 
            <glyph glyph-name="_" unicode="&#x5F;" horiz-adv-x="494" d=" M0,-105 L0,0 L494,0 L494,-105"/> 
            <glyph glyph-name="`" unicode="&#x60;" horiz-adv-x="257" d=" M257,562 L168,562 L65,707 L207,707"/> 
            <glyph glyph-name="a" unicode="&#x61;" horiz-adv-x="557" d=" M353,315 L353,341 Q353,372 331,394.5 Q309,417 270,417 Q213,417 180.5,385 Q148,353 140,322 L37,383 Q103,524 277,524 Q370,524 426.5,475.5 Q483,427 483,354 L483,138 Q483,108 512,108 Q537,108 557,118 L536,11 Q500,-12 459,-12 Q423,-12 398.5,8 Q374,28 369,64 Q293,-14 195,-14 Q130,-14 82.5,26 Q35,66 35,135 Q35,280 245,305 Q302,312 353,315 M269,219 Q168,202 168,148 Q168,124 184,110.5 Q200,97 226,97 Q265,97 306.5,124 Q348,151 354,208 L354,230 Q312,226 269,219"/> 
            <glyph glyph-name="b" unicode="&#x62;" horiz-adv-x="538" d=" M179,65 L160,0 L57,0 L57,722 L192,722 L192,450 Q212,481 249,502.5 Q286,524 327,524 Q421,524 479.5,451.5 Q538,379 538,257 Q538,136 477,61 Q416,-14 313,-14 Q273,-14 234.5,9.5 Q196,33 179,65 M294,97 Q346,97 374,141.5 Q402,186 402,257 Q402,327 374,370 Q346,413 296,413 Q264,413 229.5,379.5 Q195,346 193,274 L193,243 Q194,169 228,133 Q262,97 294,97"/> 
            <glyph glyph-name="c" unicode="&#x63;" horiz-adv-x="508" d=" M508,361 L390,317 Q380,359 352,385 Q324,411 284,411 Q233,411 202,368.5 Q171,326 171,255 Q171,181 203,140.5 Q235,100 289,100 Q368,100 401,192 L507,135 Q477,66 418.5,26 Q360,-14 288,-14 Q174,-14 105.5,59.5 Q37,133 37,255 Q37,372 106,448 Q175,524 286,524 Q368,524 427.5,479.5 Q487,435 508,361"/> 
            <glyph glyph-name="d" unicode="&#x64;" horiz-adv-x="518" d=" M401,0 L393,48 Q338,-14 259,-14 Q153,-14 95,60 Q37,134 37,257 Q37,379 98,451.5 Q159,524 258,524 Q334,524 384,472 L384,722 L518,722 L518,0 M278,104 Q312,104 346.5,136.5 Q381,169 382,243 L382,274 Q381,343 346,374.5 Q311,406 275,406 Q224,406 198.5,366.5 Q173,327 173,257 Q173,186 199.5,145 Q226,104 278,104"/> 
            <glyph glyph-name="e" unicode="&#x65;" horiz-adv-x="516" d=" M399,177 L514,137 Q485,67 425.5,26.5 Q366,-14 286,-14 Q178,-14 107.5,58.5 Q37,131 37,256 Q37,373 102.5,448.5 Q168,524 282,524 Q389,524 452.5,450 Q516,376 516,261 L514,227 L461,223 L175,223 Q173,171 204,135 Q235,99 287,99 Q366,99 399,177 M321,415 Q237,415 210,388 Q183,361 181,323 L375,323 Q375,361 321,415"/> 
            <glyph glyph-name="f" unicode="&#x66;" horiz-adv-x="360" d=" M360,702 L323,599 Q292,619 273,619 Q258,619 248.5,609.5 Q239,600 239,586 L239,510 L331,510 L331,397 L239,397 L239,0 L103,0 L103,397 L13,397 L13,510 L103,510 L103,591 Q103,666 144,700.5 Q185,735 243,735 Q307,735 360,702"/> 
            <glyph glyph-name="g" unicode="&#x67;" horiz-adv-x="546" d=" M295,104 Q342,104 376,141.5 Q410,179 410,242 L410,271 Q410,327 376,367.5 Q342,408 292,408 Q238,408 206.5,367 Q175,326 175,257 Q175,189 208.5,146.5 Q242,104 295,104 M41,-40 L176,-40 Q196,-96 274,-96 Q344,-96 381.5,-50.5 Q419,-5 414,67 Q392,33 352,11.5 Q312,-10 263,-10 Q163,-10 101.5,61.5 Q40,133 40,257 Q40,379 102.5,451.5 Q165,524 265,524 Q359,524 424,443 L435,510 L546,510 L546,74 Q546,-58 473.5,-132.5 Q401,-207 268,-207 Q177,-207 114.5,-162.5 Q52,-118 41,-40"/> 
            <glyph glyph-name="h" unicode="&#x68;" horiz-adv-x="511" d=" M293,410 Q279,410 264.5,405 Q250,400 233.5,387.5 Q217,375 206,347 Q195,319 194,280 L194,0 L57,0 L57,722 L194,722 L194,464 Q218,489 254,506.5 Q290,524 327,524 Q363,524 394,514.5 Q425,505 452,484.5 Q479,464 495,425 Q511,386 511,333 L511,0 L373,0 L373,324 Q373,367 350.5,388.5 Q328,410 293,410"/> 
            <glyph glyph-name="i" unicode="&#x69;" horiz-adv-x="199" d=" M62,0 L62,510 L199,510 L199,0 M64,582 L64,707 L197,707 L197,582"/> 
            <glyph glyph-name="j" unicode="&#x6A;" horiz-adv-x="220" d=" M10,-151 L2,-40 Q25,-58 49,-58 Q83,-58 83,-26 L83,510 L220,510 L220,-13 Q220,-57 206.5,-89 Q193,-121 170.5,-137.5 Q148,-154 125,-161.5 Q102,-169 78,-169 Q42,-169 10,-151 M85,582 L85,707 L218,707 L218,582"/> 
            <glyph glyph-name="k" unicode="&#x6B;" horiz-adv-x="530" d=" M252,203 L193,137 L193,0 L57,0 L57,722 L190,722 L190,294 L358,510 L523,510 L342,301 L530,0 L374,0"/> 
            <glyph glyph-name="l" unicode="&#x6C;" horiz-adv-x="199" d=" M62,0 L62,722 L199,722 L199,0"/> 
            <glyph glyph-name="m" unicode="&#x6D;" horiz-adv-x="818" d=" M292,410 Q255,410 225.5,382.5 Q196,355 193,278 L193,0 L57,0 L57,510 L175,510 L182,431 Q204,466 244.5,495 Q285,524 330,524 Q432,524 476,430 Q503,468 544,496 Q585,524 633,524 Q715,524 766.5,477 Q818,430 818,325 L818,0 L681,0 L681,319 Q681,364 659.5,387 Q638,410 601,410 Q509,410 507,276 L507,0 L372,0 L372,317 Q372,362 351,386 Q330,410 292,410"/> 
            <glyph glyph-name="n" unicode="&#x6E;" horiz-adv-x="511" d=" M293,409 Q259,409 228,381 Q197,353 194,279 L194,0 L57,0 L57,510 L174,510 L188,438 Q207,474 246,499 Q285,524 327,524 Q412,524 461.5,475 Q511,426 511,333 L511,0 L373,0 L373,323 Q373,362 350.5,385.5 Q328,409 293,409"/> 
            <glyph glyph-name="o" unicode="&#x6F;" horiz-adv-x="535" d=" M38,256 Q38,374 104.5,449 Q171,524 286,524 Q397,524 466,453 Q535,382 535,259 Q535,134 467,60 Q399,-14 286,-14 Q169,-14 103.5,59 Q38,132 38,256 M175,258 Q175,186 203.5,142.5 Q232,99 286,99 Q341,99 370,142.5 Q399,186 399,258 Q399,328 369,371.5 Q339,415 286,415 Q233,415 204,369.5 Q175,324 175,258"/> 
            <glyph glyph-name="p" unicode="&#x70;" horiz-adv-x="546" d=" M180,510 L188,446 Q210,477 247.5,500.5 Q285,524 329,524 Q430,524 488,449.5 Q546,375 546,253 Q546,131 485.5,58.5 Q425,-14 324,-14 Q284,-14 247.5,7.5 Q211,29 192,57 L192,-171 L57,-171 L57,510 M300,410 Q266,410 230.5,375.5 Q195,341 194,267 L194,234 Q195,197 207,169.5 Q219,142 237,128.5 Q255,115 271.5,109 Q288,103 301,103 Q352,103 381.5,142.5 Q411,182 411,253 Q411,325 383.5,367.5 Q356,410 300,410"/> 
            <glyph glyph-name="q" unicode="&#x71;" horiz-adv-x="534" d=" M403,446 L411,510 L534,510 L534,-171 L399,-171 L399,57 Q380,29 342.5,7.5 Q305,-14 265,-14 Q164,-14 101.5,58.5 Q39,131 39,253 Q39,374 98.5,449 Q158,524 260,524 Q304,524 343,500.5 Q382,477 403,446 M289,410 Q233,410 203.5,367 Q174,324 174,253 Q174,182 205.5,142.5 Q237,103 288,103 Q322,103 359,134 Q396,165 397,234 L397,267 Q396,341 360,375.5 Q324,410 289,410"/> 
            <glyph glyph-name="r" unicode="&#x72;" horiz-adv-x="380" d=" M165,510 L183,423 Q229,521 293,521 Q322,521 345,505.5 Q368,490 380,469 L313,357 Q307,371 293.5,382 Q280,393 266,393 Q234,393 214,358.5 Q194,324 194,260 L194,0 L57,0 L57,510"/> 
            <glyph glyph-name="s" unicode="&#x73;" horiz-adv-x="482" d=" M351,146 Q351,177 305,187 Q241,201 199,212 Q50,253 50,364 Q50,436 108.5,479.5 Q167,523 259,523 Q330,523 385,493 Q440,463 474,419 L392,336 Q338,413 255,413 Q219,413 199,401 Q179,389 179,368 Q179,340 241,325 Q274,317 340,303 Q400,290 441,255.5 Q482,221 482,156 Q482,81 422.5,34 Q363,-13 270,-13 Q185,-13 115.5,29.5 Q46,72 29,127 L124,197 Q126,186 141.5,165 Q157,144 193,121.5 Q229,99 272,99 Q311,99 331,113 Q351,127 351,146"/> 
            <glyph glyph-name="t" unicode="&#x74;" horiz-adv-x="346" d=" M346,117 L323,10 Q271,-14 230,-14 Q168,-14 133.5,21.5 Q99,57 99,122 L99,397 L10,397 L10,510 L99,510 L99,586 L233,714 L233,510 L338,510 L338,397 L234,397 L234,145 Q234,102 274,102 Q301,102 346,117"/> 
            <glyph glyph-name="u" unicode="&#x75;" horiz-adv-x="506" d=" M269,107 Q304,107 335.5,137 Q367,167 368,234 L368,510 L506,510 L506,0 L381,0 L373,65 Q322,-13 237,-13 Q160,-13 106,35.5 Q52,84 52,187 L52,510 L189,510 L189,194 Q189,151 212,129 Q235,107 269,107"/> 
            <glyph glyph-name="v" unicode="&#x76;" horiz-adv-x="481" d=" M243,188 L340,510 L481,510 L303,0 L179,0 L5,510 L149,510"/> 
            <glyph glyph-name="w" unicode="&#x77;" horiz-adv-x="747" d=" M459,0 L377,323 L295,0 L165,0 L5,510 L146,510 L226,202 L305,510 L449,510 L527,202 L608,510 L747,510 L588,0"/> 
            <glyph glyph-name="x" unicode="&#x78;" horiz-adv-x="494" d=" M246,156 L161,0 L5,0 L164,269 L16,510 L169,510 L244,372 L319,510 L472,510 L325,268 L494,0 L336,0"/> 
            <glyph glyph-name="y" unicode="&#x79;" horiz-adv-x="480" d=" M170,-18 L185,31 L5,510 L148,510 L251,199 L346,510 L480,510 L298,-42 Q256,-171 135,-171 Q67,-171 24,-134 L74,-34 Q99,-53 123,-53 Q158,-53 170,-18"/> 
            <glyph glyph-name="z" unicode="&#x7A;" horiz-adv-x="452" d=" M448,416 L189,119 L452,121 L452,2 L20,0 L20,96 L284,396 L33,394 L33,508 L448,510"/> 
            <glyph glyph-name="{" unicode="&#x7B;" horiz-adv-x="368" d=" M191,339 Q230,330 255,299.5 Q280,269 276,231 L258,84 Q253,44 281.5,20 Q310,-4 368,0 L351,-91 Q244,-96 179,-48 Q114,0 129,80 Q131,90 142.5,141 Q154,192 155,219 Q156,250 133.5,266.5 Q111,283 70,276 L70,402 Q111,395 133.5,411.5 Q156,428 155,459 Q154,486 142.5,537 Q131,588 129,598 Q114,678 179,726 Q244,774 351,769 L368,678 Q310,682 281.5,658 Q253,634 258,594 L276,449 Q280,411 255,380 Q230,349 191,339"/> 
            <glyph glyph-name="|" unicode="&#x7C;" horiz-adv-x="220" d=" M107,-170 L100,722 L220,722 L212,-170"/> 
            <glyph glyph-name="}" unicode="&#x7D;" horiz-adv-x="318" d=" M197,339 Q158,349 133,380 Q108,411 112,449 L130,594 Q135,634 106.5,658 Q78,682 20,678 L37,769 Q144,774 209,726 Q274,678 259,598 Q257,588 245.5,537 Q234,486 233,459 Q232,428 254.5,411.5 Q277,395 318,402 L318,276 Q277,283 254.5,266.5 Q232,250 233,219 Q234,192 245.5,141 Q257,90 259,80 Q274,0 209,-48 Q144,-96 37,-91 L20,0 Q78,-4 106.5,20 Q135,44 130,84 L112,231 Q108,269 133,299.5 Q158,330 197,339"/> 
            <glyph glyph-name="~" unicode="&#x7E;" horiz-adv-x="575" d=" M322,389 Q398,353 428,353 Q494,353 554,429 L575,300 Q511,229 424,229 Q373,229 273,279 Q203,314 167,314 Q101,314 41,239 L20,368 Q83,438 171,438 Q220,438 322,389"/> 
            <glyph glyph-name="¡" unicode="&#xA1;" horiz-adv-x="236" d=" M91,582 L91,722 L235,722 L235,582 M198,492 L230,272 L236,0 L90,0 L96,272 L128,492"/> 
            <glyph glyph-name="¢" unicode="&#xA2;" horiz-adv-x="574" d=" M574,361 L452,316 Q441,361 407,389 L359,100 Q429,109 462,192 L572,135 Q541,66 478.5,26 Q416,-14 341,-14 L340,-14 L325,-104 L225,-104 L242,2 Q168,28 126.5,94 Q85,160 85,254 Q85,367 152,442.5 Q219,518 328,523 L342,605 L443,605 L427,511 Q481,494 519,455 Q557,416 574,361 M221,254 Q221,172 263,130 L309,405 Q268,393 244.5,352.5 Q221,312 221,254"/> 
            <glyph glyph-name="£" unicode="&#xA3;" horiz-adv-x="626" d=" M229,245 L114,245 L114,330 L205,330 Q152,471 152,533 Q152,627 217,684.5 Q282,742 381,742 Q468,742 530,688 Q592,634 614,550 L486,491 Q476,544 448.5,580 Q421,616 375,616 Q339,616 316.5,592.5 Q294,569 294,532 Q294,485 326,393 Q340,352 346,330 L566,330 L566,245 L359,245 Q357,179 339,140 Q398,107 442,107 Q469,107 485,124.5 Q501,142 501,174 L623,174 Q626,86 579.5,33.5 Q533,-19 448,-19 Q372,-19 282,46 Q224,-19 139,-19 Q82,-19 47,14.5 Q12,48 12,96 Q12,150 47.5,183.5 Q83,217 140,217 Q180,217 230,194 Q232,208 232,220 Q232,233 229,245 M194,100 Q156,124 138,124 Q124,124 116,116.5 Q108,109 108,97 Q108,87 116.5,79.5 Q125,72 138,72 Q170,72 194,100"/> 
            <glyph glyph-name="¤" unicode="&#xA4;" horiz-adv-x="571" d=" M551,395 Q551,269 519,215 L571,163 L494,86 L442,138 Q392,106 325,106 Q258,106 208,137 L156,86 L79,163 L131,215 Q98,273 98,332 Q98,392 131,450 L79,502 L156,579 L208,527 Q256,559 325,559 Q392,559 442,527 L494,579 L571,502 L519,449 M212,332 Q212,283 244.5,250 Q277,217 324,217 Q372,217 404.5,250 Q437,283 437,332 Q437,382 404.5,414.5 Q372,447 324,447 Q276,447 244,414.5 Q212,382 212,332"/> 
            <glyph glyph-name="¥" unicode="&#xA5;" horiz-adv-x="608" d=" M79,105 L79,191 L248,191 L248,250 L79,250 L79,336 L233,336 L43,722 L204,722 L325,426 L449,722 L608,722 L414,336 L571,336 L571,250 L399,250 L399,191 L570,191 L570,105 L399,105 L399,0 L248,0 L248,105"/> 
            <glyph glyph-name="¦" unicode="&#xA6;" horiz-adv-x="221" d=" M100,-160 L100,232 L221,232 L221,-160 M100,330 L100,722 L221,722 L221,330"/> 
            <glyph glyph-name="§" unicode="&#xA7;" horiz-adv-x="521" d=" M521,267 Q521,237 510,213 Q499,189 479,172.5 Q459,156 443.5,147 Q428,138 406,128 Q449,102 476,60.5 Q503,19 503,-19 Q503,-98 441.5,-147 Q380,-196 286,-196 Q201,-196 140,-152.5 Q79,-109 53,-41 L170,27 Q182,-15 218,-47.5 Q254,-80 290,-80 Q325,-80 345,-66 Q365,-52 365,-26 Q365,19 248,71 Q152,113 101,158.5 Q50,204 50,273 Q50,361 167,412 Q122,438 98,477.5 Q74,517 74,559 Q74,636 136.5,684 Q199,732 287,732 Q449,732 514,585 L400,525 Q382,567 351,594 Q320,621 287,621 Q252,621 231,605.5 Q210,590 210,565 Q210,543 235.5,521.5 Q261,500 323,471 Q426,423 473.5,380.5 Q521,338 521,267 M298,333 L253,356 Q222,350 201.5,334 Q181,318 181,296 Q181,279 188,265 Q195,251 209.5,239.5 Q224,228 236.5,221 Q249,214 270,204 Q285,198 315,181 Q389,200 389,242 Q389,273 365.5,293 Q342,313 298,333"/> 
            <glyph glyph-name="¨" unicode="&#xA8;" horiz-adv-x="407" d=" M93,572 L93,689 L224,689 L224,572 M277,572 L277,689 L407,689 L407,572"/> 
            <glyph glyph-name="©" unicode="&#xA9;" horiz-adv-x="798" d=" M259,742 Q579,742 688.5,634 Q798,526 798,360 Q798,194 688.5,87 Q579,-20 419,-20 Q259,-20 149.5,87 Q40,194 40,360 Q40,526 259,742 M293,56 Q545,56 630.5,142 Q716,228 716,360 Q716,492 630.5,579 Q545,666 419,666 Q293,666 207.5,579 Q122,492 122,360 Q122,228 293,56 M530,303 Q497,213 421,215 Q314,216 314,361 Q314,509 421,509 Q492,509 522,416 L613,460 Q592,528 541.5,568 Q491,608 423,608 Q323,608 263,540.5 Q203,473 203,361 Q203,250 263,183 Q323,116 421,116 Q492,116 545.5,155.5 Q599,195 623,266"/> 
            <glyph glyph-name="ª" unicode="&#xAA;" horiz-adv-x="390" d=" M252,590 L252,608 Q252,627 238.5,639 Q225,651 200,651 Q165,651 144,631 Q123,611 115,589 L45,630 Q63,674 104.5,702 Q146,730 205,730 Q268,730 306.5,697.5 Q345,665 345,613 L345,469 Q345,458 354.5,456 Q364,454 374,457.5 Q384,461 390,465 L375,377 Q355,366 324,366 Q277,366 263,411 Q222,364 155,364 Q111,364 78.5,390 Q46,416 45,463 Q44,495 56,518 Q68,541 90,554 Q112,567 132,573 Q152,579 177,583 Q214,588 252,590 M203,517 Q176,514 159,502.5 Q142,491 143,472 Q144,448 176,448 Q189,448 203.5,452 Q218,456 234,471.5 Q250,487 252,512 L252,522 Q226,520 203,517"/> 
            <glyph glyph-name="«" unicode="&#xAB;" horiz-adv-x="500" d=" M40,263 L175,510 L303,510 L163,264 L303,18 L176,18 M237,263 L372,510 L500,510 L360,264 L500,18 L373,18"/> 
            <glyph glyph-name="¬" unicode="&#xAC;" horiz-adv-x="497" d=" M497,158 L376,158 L376,336 L38,336 L38,450 L497,450"/> 
            <glyph glyph-name="­" unicode="&#xAD;" horiz-adv-x="352" d=" M25,244 L48,368 L352,368 L330,244"/> 
            <glyph glyph-name="®" unicode="&#xAE;" horiz-adv-x="798" d=" M415,309 L352,309 L352,140 L246,140 L246,593 L447,593 Q517,593 560.5,558.5 Q604,524 604,462 Q604,422 577,392 Q550,362 513,353 Q582,332 585,257 Q588,174 619,140 L502,140 Q481,165 477,251 Q474,309 415,309 M448,498 L352,498 L352,406 L435,406 Q464,406 479.5,419 Q495,432 495,454 Q495,474 481.5,486 Q468,498 448,498 M259,742 Q579,742 688.5,634 Q798,526 798,360 Q798,194 688.5,87 Q579,-20 419,-20 Q259,-20 149.5,87 Q40,194 40,360 Q40,526 259,742 M293,56 Q545,56 630.5,142 Q716,228 716,360 Q716,492 630.5,579 Q545,666 419,666 Q293,666 207.5,579 Q122,492 122,360 Q122,228 293,56"/> 
            <glyph glyph-name="¯" unicode="&#xAF;" horiz-adv-x="430" d=" M430,578 L128,578 L128,671 L430,671"/> 
            <glyph glyph-name="°" unicode="&#xB0;" horiz-adv-x="316" d=" M40,528 Q40,642 80,682 Q120,722 177,722 Q235,722 275.5,682 Q316,642 316,585 Q316,528 275.5,488 Q235,448 177,448 Q120,448 40,528 M110,612 Q110,558 130,538 Q150,518 177,518 Q204,518 224.5,538 Q245,558 245,585 Q245,612 224.5,632.5 Q204,653 177,653 Q150,653 110,612"/> 
            <glyph glyph-name="±" unicode="&#xB1;" horiz-adv-x="497" d=" M38,341 L38,455 L209,455 L209,627 L326,627 L326,455 L497,455 L497,341 L326,341 L326,169 L209,169 L209,341 M497,0 L38,0 L38,114 L497,114"/> 
            <glyph glyph-name="²" unicode="&#xB2;" horiz-adv-x="392" d=" M218,887 Q292,887 342,846.5 Q392,806 392,739 Q392,643 264,589 L199,562 Q158,544 153,522 L386,522 L386,430 L45,430 Q45,501 77,549 Q109,597 145,620 Q169,636 235,671 Q286,698 286,742 Q286,765 267,780.5 Q248,796 219,796 Q195,796 178.5,787 Q162,778 154,760.5 Q146,743 143,729.5 Q140,716 138,695 L39,723 Q45,790 91,838.5 Q137,887 218,887"/> 
            <glyph glyph-name="³" unicode="&#xB3;" horiz-adv-x="403" d=" M393,748 Q393,719 373,693.5 Q353,668 328,660 Q356,653 379.5,624 Q403,595 403,563 Q403,496 351.5,458.5 Q300,421 221,421 Q146,421 96,459 Q46,497 31,559 L128,587 Q133,553 157.5,532.5 Q182,512 220,512 Q255,512 276.5,527 Q298,542 298,565 Q298,586 282,600 Q266,614 235,615 Q211,616 178,614 L178,697 Q223,695 238,697 Q266,700 279,713.5 Q292,727 292,745 Q292,768 273,782.5 Q254,797 225,797 Q155,797 137,724 L46,756 Q60,815 108.5,850 Q157,885 225,885 Q296,885 344.5,847.5 Q393,810 393,748"/> 
            <glyph glyph-name="´" unicode="&#xB4;" horiz-adv-x="351" d=" M193,707 L351,707 L220,562 L131,562"/> 
            <glyph glyph-name="µ" unicode="&#xB5;" horiz-adv-x="510" d=" M273,107 Q308,107 339.5,137 Q371,167 372,234 L372,510 L510,510 L510,0 L385,0 L377,65 Q326,-13 241,-13 Q216,-13 193,0 L193,-146 L57,-176 L57,510 L193,510 L193,194 Q193,151 216,129 Q239,107 273,107"/> 
            <glyph glyph-name="¶" unicode="&#xB6;" horiz-adv-x="498" d=" M161,-170 L161,253 L166,309 Q97,326 53.5,382 Q10,438 10,512 Q10,600 71.5,661 Q133,722 220,722 L474,722 L498,606 L429,606 L429,-170 L324,-170 L324,606 L267,606 L267,-170"/> 
            <glyph glyph-name="·" unicode="&#xB7;" horiz-adv-x="231" d=" M75,244 L75,408 L231,408 L231,244"/> 
            <glyph glyph-name="¸" unicode="&#xB8;" horiz-adv-x="257" d=" M76,-98 L102,11 L172,11 L161,-40 L167,-40 Q205,-40 231,-60 Q257,-80 257,-117 Q257,-158 221,-183.5 Q185,-209 127,-209 Q95,-209 60.5,-197 Q26,-185 14,-169 L58,-110 Q92,-140 130,-140 Q147,-140 158.5,-133.5 Q170,-127 170,-117 Q170,-98 140,-98"/> 
            <glyph glyph-name="¹" unicode="&#xB9;" horiz-adv-x="236" d=" M130,430 L130,732 L55,706 L55,795 Q129,807 154,875 L236,875 L236,430"/> 
            <glyph glyph-name="º" unicode="&#xBA;" horiz-adv-x="387" d=" M47,549 Q47,629 93,679.5 Q139,730 217,730 Q294,730 340.5,682.5 Q387,635 387,550 Q387,465 340.5,415 Q294,365 217,365 Q140,365 93.5,415 Q47,465 47,549 M149,550 Q149,455 217,455 Q250,455 268,480 Q286,505 286,550 Q286,594 268,618.5 Q250,643 217,643 Q183,643 166,617 Q149,591 149,550"/> 
            <glyph glyph-name="»" unicode="&#xBB;" horiz-adv-x="490" d=" M355,510 L490,263 L354,18 L227,18 L367,264 L227,510 M158,510 L293,263 L157,18 L30,18 L170,264 L30,510"/> 
            <glyph glyph-name="¼" unicode="&#xBC;" horiz-adv-x="854" d=" M170,250 L170,552 L95,526 L95,615 Q171,632 194,695 L276,695 L276,250 M684,86 L684,227 Q629,151 564,86 M467,-3 L467,93 Q592,226 685,361 L786,361 L786,91 L854,91 L854,-3 L786,-3 L786,-84 L682,-84 L682,-3 M157,-83 L600,689 L702,689 L258,-83"/> 
            <glyph glyph-name="½" unicode="&#xBD;" horiz-adv-x="855" d=" M681,373 Q755,373 805,332.5 Q855,292 855,225 Q855,129 727,75 L662,48 Q621,30 616,8 L849,8 L849,-84 L508,-84 Q508,-13 540,35 Q572,83 608,106 Q632,122 698,157 Q749,184 749,228 Q749,251 730,266.5 Q711,282 682,282 Q658,282 641.5,273 Q625,264 617,246.5 Q609,229 606,215.5 Q603,202 601,181 L502,209 Q508,276 554,324.5 Q600,373 681,373 M139,-83 L582,689 L684,689 L240,-83 M170,250 L170,552 L95,526 L95,615 Q171,632 194,695 L276,695 L276,250"/> 
            <glyph glyph-name="¾" unicode="&#xBE;" horiz-adv-x="874" d=" M400,570 Q400,541 380,515.5 Q360,490 335,482 Q363,475 386.5,446 Q410,417 410,385 Q410,318 358.5,280.5 Q307,243 228,243 Q153,243 103,281 Q53,319 38,381 L135,409 Q140,375 164.5,354.5 Q189,334 227,334 Q262,334 283.5,349 Q305,364 305,387 Q305,408 289,422 Q273,436 242,437 Q218,438 185,436 L185,519 Q230,517 245,519 Q273,522 286,535.5 Q299,549 299,567 Q299,590 280,604.5 Q261,619 232,619 Q162,619 144,546 L53,578 Q67,637 115.5,672 Q164,707 232,707 Q303,707 351.5,669.5 Q400,632 400,570 M223,-83 L666,689 L768,689 L324,-83 M704,86 L704,227 Q649,151 584,86 M487,-3 L487,93 Q612,226 705,361 L806,361 L806,91 L874,91 L874,-3 L806,-3 L806,-84 L702,-84 L702,-3"/> 
            <glyph glyph-name="¿" unicode="&#xBF;" horiz-adv-x="446" d=" M301,361 Q301,330 257,313 L205,292 Q64,239 64,135 Q64,62 115,21 Q166,-20 246,-20 Q316,-20 372,21.5 Q428,63 446,107 L363,187 Q350,156 313.5,124 Q277,92 243,92 Q217,92 201.5,104 Q186,116 186,137 Q186,167 232,185 L288,208 Q422,264 422,363 Q422,432 372.5,473 Q323,514 250,514 Q180,514 126.5,472 Q73,430 52,371 L147,311 Q150,320 155.5,331.5 Q161,343 172.5,361 Q184,379 204,390.5 Q224,402 248,402 Q270,402 285.5,390.5 Q301,379 301,361 M316,722 L316,582 L172,582 L172,722"/> 
            <glyph glyph-name="À" unicode="&#xC0;" horiz-adv-x="655" d=" M226,158 L179,0 L20,0 L262,722 L420,722 L655,0 L492,0 L445,158 M406,292 L338,538 L267,292 M191,900 L341,900 L392,772 L293,772"/> 
            <glyph glyph-name="Á" unicode="&#xC1;" horiz-adv-x="655" d=" M179,0 L226,158 L445,158 L492,0 L655,0 L420,722 L262,722 L20,0 M338,538 L406,292 L267,292 M388,772 L289,772 L355,900 L517,900"/> 
            <glyph glyph-name="Â" unicode="&#xC2;" horiz-adv-x="655" d=" M179,0 L226,158 L445,158 L492,0 L655,0 L420,722 L262,722 L20,0 M338,538 L406,292 L267,292 M338,834 L284,772 L165,772 L260,899 L415,899 L511,772 L392,772"/> 
            <glyph glyph-name="Ã" unicode="&#xC3;" horiz-adv-x="655" d=" M179,0 L226,158 L445,158 L492,0 L655,0 L420,722 L262,722 L20,0 M338,538 L406,292 L267,292 M442,902 L515,889 Q509,840 484.5,804 Q460,768 411,768 Q387,768 346,789.5 Q305,811 282,811 Q269,811 258,799.5 Q247,788 246,771 L173,784 Q179,833 203.5,869 Q228,905 277,905 Q301,905 343.5,883.5 Q386,862 406,862 Q419,862 430,873.5 Q441,885 442,902"/> 
            <glyph glyph-name="Ä" unicode="&#xC4;" horiz-adv-x="655" d=" M179,0 L226,158 L445,158 L492,0 L655,0 L420,722 L262,722 L20,0 M338,538 L406,292 L267,292 M183,772 L183,889 L314,889 L314,772 M363,772 L363,889 L493,889 L493,772"/> 
            <glyph glyph-name="Å" unicode="&#xC5;" horiz-adv-x="655" d=" M226,158 L179,0 L20,0 L262,722 L420,722 L655,0 L492,0 L445,158 M406,292 L338,538 L267,292 M237,867 Q237,908 266.5,937.5 Q296,967 338,967 Q379,967 409,937.5 Q439,908 439,867 Q439,825 409.5,796 Q380,767 338,767 Q296,767 266.5,796 Q237,825 237,867 M300,867 Q300,850 311,839.5 Q322,829 338,829 Q354,829 364.5,840 Q375,851 375,867 Q375,883 364.5,893.5 Q354,904 338,904 Q322,904 311,893.5 Q300,883 300,867"/> 
            <glyph glyph-name="Æ" unicode="&#xC6;" horiz-adv-x="986" d=" M436,164 L239,164 L181,0 L18,0 L294,722 L968,722 L968,586 L512,586 L542,433 L916,433 L916,299 L567,299 L597,141 L986,141 L986,0 L463,0 M374,552 L286,299 L414,299"/> 
            <glyph glyph-name="Ç" unicode="&#xC7;" horiz-adv-x="705" d=" M301,-98 L321,-14 Q193,9 119,108 Q45,207 45,358 Q45,529 140,635.5 Q235,742 395,742 Q504,742 581.5,683 Q659,624 691,522 L563,460 Q545,526 498.5,567 Q452,608 391,608 Q303,608 252.5,543 Q202,478 202,360 Q202,250 254,182.5 Q306,115 392,115 Q457,115 502,148.5 Q547,182 575,259 L705,202 Q671,96 587.5,38 Q504,-20 391,-20 L390,-20 L386,-40 L392,-40 Q430,-40 456,-60 Q482,-80 482,-117 Q482,-158 446,-183.5 Q410,-209 352,-209 Q320,-209 285.5,-197 Q251,-185 239,-169 L283,-110 Q317,-140 355,-140 Q372,-140 383.5,-133.5 Q395,-127 395,-117 Q395,-98 365,-98"/> 
            <glyph glyph-name="È" unicode="&#xC8;" horiz-adv-x="669" d=" M75,0 L75,722 L651,722 L651,586 L230,586 L230,433 L599,433 L599,299 L230,299 L230,141 L669,141 L669,0 M226,900 L376,900 L427,772 L328,772"/> 
            <glyph glyph-name="É" unicode="&#xC9;" horiz-adv-x="669" d=" M75,0 L75,722 L651,722 L651,586 L230,586 L230,433 L599,433 L599,299 L230,299 L230,141 L669,141 L669,0 M398,772 L299,772 L365,900 L527,900"/> 
            <glyph glyph-name="Ê" unicode="&#xCA;" horiz-adv-x="669" d=" M75,0 L75,722 L651,722 L651,586 L230,586 L230,433 L599,433 L599,299 L230,299 L230,141 L669,141 L669,0 M368,834 L314,772 L195,772 L290,899 L445,899 L541,772 L422,772"/> 
            <glyph glyph-name="Ë" unicode="&#xCB;" horiz-adv-x="669" d=" M75,0 L75,722 L651,722 L651,586 L230,586 L230,433 L599,433 L599,299 L230,299 L230,141 L669,141 L669,0 M215,772 L215,889 L346,889 L346,772 M395,772 L395,889 L525,889 L525,772"/> 
            <glyph glyph-name="Ì" unicode="&#xCC;" horiz-adv-x="241" d=" M85,0 L85,722 L241,722 L241,0 M21,900 L171,900 L222,772 L123,772"/> 
            <glyph glyph-name="Í" unicode="&#xCD;" horiz-adv-x="332" d=" M85,722 L85,0 L241,0 L241,722 M203,772 L104,772 L170,900 L332,900"/> 
            <glyph glyph-name="Î" unicode="&#xCE;" horiz-adv-x="335" d=" M85,722 L85,0 L241,0 L241,722 M162,834 L108,772 L-11,772 L84,899 L239,899 L335,772 L216,772"/> 
            <glyph glyph-name="Ï" unicode="&#xCF;" horiz-adv-x="318" d=" M85,722 L85,0 L241,0 L241,722 M8,772 L8,889 L139,889 L139,772 M188,772 L188,889 L318,889 L318,772"/> 
            <glyph glyph-name="Ð" unicode="&#xD0;" horiz-adv-x="717" d=" M267,403 L427,403 L427,316 L267,316 L267,138 L382,138 Q561,138 561,362 Q561,469 519.5,528.5 Q478,588 395,588 L267,588 M111,0 L111,316 L25,316 L25,403 L111,403 L111,722 L393,722 Q542,722 629.5,631.5 Q717,541 717,362 Q717,186 623,93 Q529,0 365,0"/> 
            <glyph glyph-name="Ñ" unicode="&#xD1;" horiz-adv-x="685" d=" M685,0 L536,0 L225,511 L225,0 L75,0 L75,722 L254,722 L538,255 L538,722 L685,722 M492,902 L565,889 Q559,840 534.5,804 Q510,768 461,768 Q437,768 396,789.5 Q355,811 332,811 Q319,811 308,799.5 Q297,788 296,771 L223,784 Q229,833 253.5,869 Q278,905 327,905 Q351,905 393.5,883.5 Q436,862 456,862 Q469,862 480,873.5 Q491,885 492,902"/> 
            <glyph glyph-name="Ò" unicode="&#xD2;" horiz-adv-x="741" d=" M45,359 Q45,531 142,636.5 Q239,742 394,742 Q548,742 644.5,636.5 Q741,531 741,359 Q741,183 643.5,81.5 Q546,-20 394,-20 Q235,-20 140,82.5 Q45,185 45,359 M202,359 Q202,247 250.5,179 Q299,111 394,111 Q481,111 532,174.5 Q583,238 583,359 Q583,470 535,540.5 Q487,611 394,611 Q302,611 252,542 Q202,473 202,359 M246,900 L396,900 L447,772 L348,772"/> 
            <glyph glyph-name="Ó" unicode="&#xD3;" horiz-adv-x="741" d=" M45,359 Q45,185 140,82.5 Q235,-20 394,-20 Q546,-20 643.5,81.5 Q741,183 741,359 Q741,531 644.5,636.5 Q548,742 394,742 Q239,742 142,636.5 Q45,531 45,359 M202,359 Q202,473 252,542 Q302,611 394,611 Q487,611 535,540.5 Q583,470 583,359 Q583,238 532,174.5 Q481,111 394,111 Q299,111 250.5,179 Q202,247 202,359 M428,772 L329,772 L395,900 L557,900"/> 
            <glyph glyph-name="Ô" unicode="&#xD4;" horiz-adv-x="741" d=" M45,359 Q45,185 140,82.5 Q235,-20 394,-20 Q546,-20 643.5,81.5 Q741,183 741,359 Q741,531 644.5,636.5 Q548,742 394,742 Q239,742 142,636.5 Q45,531 45,359 M202,359 Q202,473 252,542 Q302,611 394,611 Q487,611 535,540.5 Q583,470 583,359 Q583,238 532,174.5 Q481,111 394,111 Q299,111 250.5,179 Q202,247 202,359 M393,834 L339,772 L220,772 L315,899 L470,899 L566,772 L447,772"/> 
            <glyph glyph-name="Õ" unicode="&#xD5;" horiz-adv-x="741" d=" M45,359 Q45,185 140,82.5 Q235,-20 394,-20 Q546,-20 643.5,81.5 Q741,183 741,359 Q741,531 644.5,636.5 Q548,742 394,742 Q239,742 142,636.5 Q45,531 45,359 M202,359 Q202,473 252,542 Q302,611 394,611 Q487,611 535,540.5 Q583,470 583,359 Q583,238 532,174.5 Q481,111 394,111 Q299,111 250.5,179 Q202,247 202,359 M497,902 L570,889 Q564,840 539.5,804 Q515,768 466,768 Q442,768 401,789.5 Q360,811 337,811 Q324,811 313,799.5 Q302,788 301,771 L228,784 Q234,833 258.5,869 Q283,905 332,905 Q356,905 398.5,883.5 Q441,862 461,862 Q474,862 485,873.5 Q496,885 497,902"/> 
            <glyph glyph-name="Ö" unicode="&#xD6;" horiz-adv-x="741" d=" M45,359 Q45,185 140,82.5 Q235,-20 394,-20 Q546,-20 643.5,81.5 Q741,183 741,359 Q741,531 644.5,636.5 Q548,742 394,742 Q239,742 142,636.5 Q45,531 45,359 M202,359 Q202,473 252,542 Q302,611 394,611 Q487,611 535,540.5 Q583,470 583,359 Q583,238 532,174.5 Q481,111 394,111 Q299,111 250.5,179 Q202,247 202,359 M237,772 L237,889 L368,889 L368,772 M417,772 L417,889 L547,889 L547,772"/> 
            <glyph glyph-name="×" unicode="&#xD7;" horiz-adv-x="505" d=" M110,541 L267,382 L425,540 L504,461 L346,305 L505,148 L425,68 L267,225 L109,67 L30,146 L189,304 L30,461"/> 
            <glyph glyph-name="Ø" unicode="&#xD8;" horiz-adv-x="746" d=" M52,359 Q52,531 148.5,636.5 Q245,742 400,742 Q526,742 617,667 L672,727 L738,664 L679,599 Q746,501 746,359 Q746,183 649,81.5 Q552,-20 400,-20 Q266,-20 177,54 L123,-5 L55,59 L114,123 Q52,219 52,359 M400,111 Q487,111 538.5,174.5 Q590,238 590,359 Q590,423 571,482 L273,158 Q322,111 400,111 M207,359 Q207,290 224,242 L521,564 Q472,611 400,611 Q308,611 257.5,542 Q207,473 207,359"/> 
            <glyph glyph-name="Ù" unicode="&#xD9;" horiz-adv-x="680" d=" M75,258 L75,722 L233,722 L233,261 Q233,197 270.5,156 Q308,115 378,115 Q447,115 484.5,156.5 Q522,198 522,262 L522,722 L680,722 L680,266 Q680,128 599,54 Q518,-20 373,-20 Q247,-20 161,53 Q75,126 75,258 M236,900 L386,900 L437,772 L338,772"/> 
            <glyph glyph-name="Ú" unicode="&#xDA;" horiz-adv-x="680" d=" M75,722 L75,258 Q75,126 161,53 Q247,-20 373,-20 Q518,-20 599,54 Q680,128 680,266 L680,722 L522,722 L522,262 Q522,198 484.5,156.5 Q447,115 378,115 Q308,115 270.5,156 Q233,197 233,261 L233,722 M423,772 L324,772 L390,900 L552,900"/> 
            <glyph glyph-name="Û" unicode="&#xDB;" horiz-adv-x="680" d=" M75,722 L75,258 Q75,126 161,53 Q247,-20 373,-20 Q518,-20 599,54 Q680,128 680,266 L680,722 L522,722 L522,262 Q522,198 484.5,156.5 Q447,115 378,115 Q308,115 270.5,156 Q233,197 233,261 L233,722 M378,834 L324,772 L205,772 L300,899 L455,899 L551,772 L432,772"/> 
            <glyph glyph-name="Ü" unicode="&#xDC;" horiz-adv-x="680" d=" M75,722 L75,258 Q75,126 161,53 Q247,-20 373,-20 Q518,-20 599,54 Q680,128 680,266 L680,722 L522,722 L522,262 Q522,198 484.5,156.5 Q447,115 378,115 Q308,115 270.5,156 Q233,197 233,261 L233,722 M222,772 L222,889 L353,889 L353,772 M402,772 L402,889 L532,889 L532,772"/> 
            <glyph glyph-name="Ý" unicode="&#xDD;" horiz-adv-x="659" d=" M253,0 L253,266 L6,722 L178,722 L332,399 L487,722 L659,722 L409,265 L409,0 M378,772 L279,772 L345,900 L507,900"/> 
            <glyph glyph-name="Þ" unicode="&#xDE;" horiz-adv-x="667" d=" M423,456 L231,456 L231,281 L405,281 Q456,281 484,304 Q512,327 512,370 Q512,410 486.5,433 Q461,456 423,456 M75,0 L75,722 L231,722 L231,590 L424,590 Q534,590 600.5,531.5 Q667,473 667,373 Q667,270 599,208.5 Q531,147 415,147 L231,147 L231,0"/> 
            <glyph glyph-name="ß" unicode="&#xDF;" horiz-adv-x="548" d=" M203,127 L300,145 Q302,128 314,118 Q326,108 341,108 Q377,108 394.5,137 Q412,166 412,214 Q412,274 365,309 Q318,344 256,339 L256,455 Q306,451 342,481 Q378,511 378,552 Q378,585 355.5,605.5 Q333,626 295,626 Q248,626 217,593 Q186,560 186,508 L186,0 L57,0 L57,504 Q57,617 123.5,676.5 Q190,736 303,736 Q393,736 449.5,687.5 Q506,639 506,559 Q506,506 476.5,464 Q447,422 406,405 Q454,395 500,343.5 Q546,292 547,216 Q548,112 495.5,49 Q443,-14 349,-14 Q287,-14 246,23 Q205,60 203,127"/> 
            <glyph glyph-name="à" unicode="&#xE0;" horiz-adv-x="560" d=" M356,315 L356,341 Q356,372 334,394.5 Q312,417 273,417 Q216,417 183.5,385 Q151,353 143,322 L40,383 Q106,524 280,524 Q373,524 429.5,475.5 Q486,427 486,354 L486,138 Q486,108 515,108 Q540,108 560,118 L539,11 Q503,-12 462,-12 Q426,-12 401.5,8 Q377,28 372,64 Q296,-14 198,-14 Q133,-14 85.5,26 Q38,66 38,135 Q38,280 248,305 Q305,312 356,315 M272,219 Q171,202 171,148 Q171,124 187,110.5 Q203,97 229,97 Q268,97 309.5,124 Q351,151 357,208 L357,230 Q315,226 272,219 M322,562 L233,562 L130,707 L272,707"/> 
            <glyph glyph-name="á" unicode="&#xE1;" horiz-adv-x="560" d=" M356,341 L356,315 Q305,312 248,305 Q38,280 38,135 Q38,66 85.5,26 Q133,-14 198,-14 Q296,-14 372,64 Q377,28 401.5,8 Q426,-12 462,-12 Q503,-12 539,11 L560,118 Q540,108 515,108 Q486,108 486,138 L486,354 Q486,427 429.5,475.5 Q373,524 280,524 Q106,524 40,383 L143,322 Q151,353 183.5,385 Q216,417 273,417 Q312,417 334,394.5 Q356,372 356,341 M272,219 Q315,226 357,230 L357,208 Q351,151 309.5,124 Q268,97 229,97 Q203,97 187,110.5 Q171,124 171,148 Q171,202 272,219 M283,707 L441,707 L310,562 L221,562"/> 
            <glyph glyph-name="â" unicode="&#xE2;" horiz-adv-x="560" d=" M356,315 L356,341 Q356,372 334,394.5 Q312,417 273,417 Q216,417 183.5,385 Q151,353 143,322 L40,383 Q106,524 280,524 Q373,524 429.5,475.5 Q486,427 486,354 L486,138 Q486,108 515,108 Q540,108 560,118 L539,11 Q503,-12 462,-12 Q426,-12 401.5,8 Q377,28 372,64 Q296,-14 198,-14 Q133,-14 85.5,26 Q38,66 38,135 Q38,280 248,305 Q305,312 356,315 M272,219 Q171,202 171,148 Q171,124 187,110.5 Q203,97 229,97 Q268,97 309.5,124 Q351,151 357,208 L357,230 Q315,226 272,219 M322,562 L274,624 L226,562 L116,562 L207,690 L343,690 L433,562"/> 
            <glyph glyph-name="ã" unicode="&#xE3;" horiz-adv-x="560" d=" M356,341 L356,315 Q305,312 248,305 Q38,280 38,135 Q38,66 85.5,26 Q133,-14 198,-14 Q296,-14 372,64 Q377,28 401.5,8 Q426,-12 462,-12 Q503,-12 539,11 L560,118 Q540,108 515,108 Q486,108 486,138 L486,354 Q486,427 429.5,475.5 Q373,524 280,524 Q106,524 40,383 L143,322 Q151,353 183.5,385 Q216,417 273,417 Q312,417 334,394.5 Q356,372 356,341 M272,219 Q315,226 357,230 L357,208 Q351,151 309.5,124 Q268,97 229,97 Q203,97 187,110.5 Q171,124 171,148 Q171,202 272,219 M380,699 L456,686 Q440,558 347,558 Q322,558 279,579 Q236,600 214,600 Q200,600 188.5,588.5 Q177,577 176,560 L100,573 Q116,701 209,701 Q234,701 278,680 Q322,659 342,659 Q356,659 367.5,670.5 Q379,682 380,699"/> 
            <glyph glyph-name="ä" unicode="&#xE4;" horiz-adv-x="560" d=" M356,341 L356,315 Q305,312 248,305 Q38,280 38,135 Q38,66 85.5,26 Q133,-14 198,-14 Q296,-14 372,64 Q377,28 401.5,8 Q426,-12 462,-12 Q503,-12 539,11 L560,118 Q540,108 515,108 Q486,108 486,138 L486,354 Q486,427 429.5,475.5 Q373,524 280,524 Q106,524 40,383 L143,322 Q151,353 183.5,385 Q216,417 273,417 Q312,417 334,394.5 Q356,372 356,341 M272,219 Q315,226 357,230 L357,208 Q351,151 309.5,124 Q268,97 229,97 Q203,97 187,110.5 Q171,124 171,148 Q171,202 272,219 M118,572 L118,689 L249,689 L249,572 M302,572 L302,689 L432,689 L432,572"/> 
            <glyph glyph-name="å" unicode="&#xE5;" horiz-adv-x="560" d=" M356,315 L356,341 Q356,372 334,394.5 Q312,417 273,417 Q216,417 183.5,385 Q151,353 143,322 L40,383 Q106,524 280,524 Q373,524 429.5,475.5 Q486,427 486,354 L486,138 Q486,108 515,108 Q540,108 560,118 L539,11 Q503,-12 462,-12 Q426,-12 401.5,8 Q377,28 372,64 Q296,-14 198,-14 Q133,-14 85.5,26 Q38,66 38,135 Q38,280 248,305 Q305,312 356,315 M272,219 Q171,202 171,148 Q171,124 187,110.5 Q203,97 229,97 Q268,97 309.5,124 Q351,151 357,208 L357,230 Q315,226 272,219 M165,622 Q165,708 195.5,738 Q226,768 269,768 Q312,768 342.5,738 Q373,708 373,665 Q373,622 342.5,592 Q312,562 269,562 Q225,562 165,622 M230,665 Q230,648 241,637 Q252,626 269,626 Q285,626 296,637.5 Q307,649 307,665 Q307,681 296,692 Q285,703 269,703 Q253,703 241.5,692 Q230,681 230,665"/> 
            <glyph glyph-name="æ" unicode="&#xE6;" horiz-adv-x="826" d=" M708,177 L823,137 Q794,67 734.5,26.5 Q675,-14 596,-14 Q479,-14 410,76 Q327,-13 198,-13 Q132,-13 85,26.5 Q38,66 38,135 Q38,274 248,305 Q300,313 356,316 L356,341 Q356,372 334,394.5 Q312,417 273,417 Q216,417 183.5,385 Q151,353 143,322 L40,383 Q106,524 280,524 Q370,524 425,462 Q490,524 592,524 Q699,524 762.5,450 Q826,376 826,261 L824,227 L773,224 L485,225 Q485,173 516,136 Q547,99 597,99 Q675,99 708,177 M272,218 Q227,211 198.5,192.5 Q170,174 170,147 Q170,123 186,109.5 Q202,96 228,96 Q268,96 309.5,123 Q351,150 357,206 L357,227 Q316,225 272,218 M589,415 Q549,415 522,386.5 Q495,358 491,321 L685,323 Q683,360 656.5,387.5 Q630,415 589,415"/> 
            <glyph glyph-name="ç" unicode="&#xE7;" horiz-adv-x="508" d=" M206,-98 L227,-8 Q138,11 87.5,80.5 Q37,150 37,255 Q37,372 106,448 Q175,524 286,524 Q368,524 427.5,479.5 Q487,435 508,361 L390,317 Q380,359 352,385 Q324,411 284,411 Q233,411 202,368.5 Q171,326 171,255 Q171,181 203,140.5 Q235,100 289,100 Q368,100 401,192 L507,135 Q478,68 421.5,28.5 Q365,-11 296,-14 L291,-40 L297,-40 Q335,-40 361,-60 Q387,-80 387,-117 Q387,-158 351,-183.5 Q315,-209 257,-209 Q225,-209 190.5,-197 Q156,-185 144,-169 L188,-110 Q222,-140 260,-140 Q277,-140 288.5,-133.5 Q300,-127 300,-117 Q300,-98 270,-98"/> 
            <glyph glyph-name="è" unicode="&#xE8;" horiz-adv-x="516" d=" M399,177 L514,137 Q485,67 425.5,26.5 Q366,-14 286,-14 Q178,-14 107.5,58.5 Q37,131 37,256 Q37,373 102.5,448.5 Q168,524 282,524 Q389,524 452.5,450 Q516,376 516,261 L514,227 L461,223 L175,223 Q173,171 204,135 Q235,99 287,99 Q366,99 399,177 M321,415 Q237,415 210,388 Q183,361 181,323 L375,323 Q375,361 321,415 M337,562 L248,562 L145,707 L287,707"/> 
            <glyph glyph-name="é" unicode="&#xE9;" horiz-adv-x="516" d=" M514,137 L399,177 Q366,99 287,99 Q235,99 204,135 Q173,171 175,223 L461,223 L514,227 Q516,251 516,261 Q516,376 452.5,450 Q389,524 282,524 Q168,524 102.5,448.5 Q37,373 37,256 Q37,131 107.5,58.5 Q178,-14 286,-14 Q366,-14 425.5,26.5 Q485,67 514,137 M237,415 Q321,415 348,388 Q375,361 375,323 L181,323 Q183,361 237,415 M293,707 L451,707 L320,562 L231,562"/> 
            <glyph glyph-name="ê" unicode="&#xEA;" horiz-adv-x="516" d=" M399,177 L514,137 Q485,67 425.5,26.5 Q366,-14 286,-14 Q178,-14 107.5,58.5 Q37,131 37,256 Q37,373 102.5,448.5 Q168,524 282,524 Q389,524 452.5,450 Q516,376 516,261 L514,227 L461,223 L175,223 Q173,171 204,135 Q235,99 287,99 Q366,99 399,177 M321,415 Q237,415 210,388 Q183,361 181,323 L375,323 Q375,361 321,415 M332,562 L284,624 L236,562 L126,562 L217,690 L353,690 L443,562"/> 
            <glyph glyph-name="ë" unicode="&#xEB;" horiz-adv-x="516" d=" M514,137 L399,177 Q366,99 287,99 Q235,99 204,135 Q173,171 175,223 L461,223 L514,227 Q516,251 516,261 Q516,376 452.5,450 Q389,524 282,524 Q168,524 102.5,448.5 Q37,373 37,256 Q37,131 107.5,58.5 Q178,-14 286,-14 Q366,-14 425.5,26.5 Q485,67 514,137 M237,415 Q321,415 348,388 Q375,361 375,323 L181,323 Q183,361 237,415 M128,572 L128,689 L259,689 L259,572 M312,572 L312,689 L442,689 L442,572"/> 
            <glyph glyph-name="ì" unicode="&#xEC;" horiz-adv-x="202" d=" M65,0 L65,510 L202,510 L202,0 M187,562 L98,562 L-5,707 L137,707"/> 
            <glyph glyph-name="í" unicode="&#xED;" horiz-adv-x="296" d=" M65,0 L65,510 L202,510 L202,0 M138,707 L296,707 L165,562 L76,562"/> 
            <glyph glyph-name="î" unicode="&#xEE;" horiz-adv-x="291" d=" M65,0 L65,510 L202,510 L202,0 M180,562 L132,624 L84,562 L-26,562 L65,690 L201,690 L291,562"/> 
            <glyph glyph-name="ï" unicode="&#xEF;" horiz-adv-x="291" d=" M65,0 L65,510 L202,510 L202,0 M-23,572 L-23,689 L108,689 L108,572 M161,572 L161,689 L291,689 L291,572"/> 
            <glyph glyph-name="ð" unicode="&#xF0;" horiz-adv-x="530" d=" M325,573 L194,518 L165,587 L246,621 Q184,646 117,642 L186,742 Q288,732 368,672 L494,724 L523,655 L428,615 Q530,495 530,330 Q530,162 458.5,74 Q387,-14 275,-14 Q170,-14 105,56.5 Q40,127 40,252 Q40,367 103,432.5 Q166,498 258,498 Q308,498 350,474 Q392,450 415,410 Q413,499 325,573 M286,102 Q332,102 361.5,142.5 Q391,183 391,249 Q391,316 359.5,354.5 Q328,393 279,393 Q229,393 201,352.5 Q173,312 173,248 Q173,180 202.5,141 Q232,102 286,102"/> 
            <glyph glyph-name="ñ" unicode="&#xF1;" horiz-adv-x="511" d=" M293,409 Q328,409 350.5,385.5 Q373,362 373,323 L373,0 L511,0 L511,333 Q511,426 461.5,475 Q412,524 327,524 Q285,524 246,499 Q207,474 188,438 L174,510 L57,510 L57,0 L194,0 L194,279 Q197,353 228,381 Q259,409 293,409 M400,699 L476,686 Q460,558 367,558 Q342,558 299,579 Q256,600 234,600 Q220,600 208.5,588.5 Q197,577 196,560 L120,573 Q136,701 229,701 Q254,701 298,680 Q342,659 362,659 Q376,659 387.5,670.5 Q399,682 400,699"/> 
            <glyph glyph-name="ò" unicode="&#xF2;" horiz-adv-x="535" d=" M38,256 Q38,374 104.5,449 Q171,524 286,524 Q397,524 466,453 Q535,382 535,259 Q535,134 467,60 Q399,-14 286,-14 Q169,-14 103.5,59 Q38,132 38,256 M175,258 Q175,186 203.5,142.5 Q232,99 286,99 Q341,99 370,142.5 Q399,186 399,258 Q399,328 369,371.5 Q339,415 286,415 Q233,415 204,369.5 Q175,324 175,258 M332,562 L243,562 L140,707 L282,707"/> 
            <glyph glyph-name="ó" unicode="&#xF3;" horiz-adv-x="535" d=" M38,256 Q38,132 103.5,59 Q169,-14 286,-14 Q399,-14 467,60 Q535,134 535,259 Q535,382 466,453 Q397,524 286,524 Q171,524 104.5,449 Q38,374 38,256 M175,258 Q175,324 204,369.5 Q233,415 286,415 Q339,415 369,371.5 Q399,328 399,258 Q399,186 370,142.5 Q341,99 286,99 Q232,99 203.5,142.5 Q175,186 175,258 M303,707 L461,707 L330,562 L241,562"/> 
            <glyph glyph-name="ô" unicode="&#xF4;" horiz-adv-x="535" d=" M38,256 Q38,374 104.5,449 Q171,524 286,524 Q397,524 466,453 Q535,382 535,259 Q535,134 467,60 Q399,-14 286,-14 Q169,-14 103.5,59 Q38,132 38,256 M175,258 Q175,186 203.5,142.5 Q232,99 286,99 Q341,99 370,142.5 Q399,186 399,258 Q399,328 369,371.5 Q339,415 286,415 Q233,415 204,369.5 Q175,324 175,258 M335,562 L287,624 L239,562 L129,562 L220,690 L356,690 L446,562"/> 
            <glyph glyph-name="õ" unicode="&#xF5;" horiz-adv-x="535" d=" M38,256 Q38,132 103.5,59 Q169,-14 286,-14 Q399,-14 467,60 Q535,134 535,259 Q535,382 466,453 Q397,524 286,524 Q171,524 104.5,449 Q38,374 38,256 M175,258 Q175,324 204,369.5 Q233,415 286,415 Q339,415 369,371.5 Q399,328 399,258 Q399,186 370,142.5 Q341,99 286,99 Q232,99 203.5,142.5 Q175,186 175,258 M390,699 L466,686 Q450,558 357,558 Q332,558 289,579 Q246,600 224,600 Q210,600 198.5,588.5 Q187,577 186,560 L110,573 Q126,701 219,701 Q244,701 288,680 Q332,659 352,659 Q366,659 377.5,670.5 Q389,682 390,699"/> 
            <glyph glyph-name="ö" unicode="&#xF6;" horiz-adv-x="535" d=" M38,256 Q38,132 103.5,59 Q169,-14 286,-14 Q399,-14 467,60 Q535,134 535,259 Q535,382 466,453 Q397,524 286,524 Q171,524 104.5,449 Q38,374 38,256 M175,258 Q175,324 204,369.5 Q233,415 286,415 Q339,415 369,371.5 Q399,328 399,258 Q399,186 370,142.5 Q341,99 286,99 Q232,99 203.5,142.5 Q175,186 175,258 M129,572 L129,689 L260,689 L260,572 M313,572 L313,689 L443,689 L443,572"/> 
            <glyph glyph-name="÷" unicode="&#xF7;" horiz-adv-x="497" d=" M497,210 L38,210 L38,324 L497,324 M195,0 L195,155 L342,155 L342,0 M195,380 L195,535 L342,535 L342,380"/> 
            <glyph glyph-name="ø" unicode="&#xF8;" horiz-adv-x="572" d=" M59,256 Q59,374 125,449 Q191,524 306,524 Q386,524 447,485 L504,549 L572,488 L511,420 Q554,356 554,259 Q554,134 486,60 Q418,-14 306,-14 Q221,-14 161,26 L105,-38 L38,23 L99,92 Q59,156 59,256 M306,99 Q361,99 390.5,142.5 Q420,186 420,258 Q420,278 414,310 L244,119 Q270,99 306,99 M194,258 Q194,232 199,205 L367,394 Q340,415 306,415 Q253,415 223.5,369.5 Q194,324 194,258"/> 
            <glyph glyph-name="ù" unicode="&#xF9;" horiz-adv-x="511" d=" M274,107 Q309,107 340.5,137 Q372,167 373,234 L373,510 L511,510 L511,0 L386,0 L378,65 Q327,-13 242,-13 Q165,-13 111,35.5 Q57,84 57,187 L57,510 L194,510 L194,194 Q194,151 217,129 Q240,107 274,107 M337,562 L248,562 L145,707 L287,707"/> 
            <glyph glyph-name="ú" unicode="&#xFA;" horiz-adv-x="511" d=" M274,107 Q240,107 217,129 Q194,151 194,194 L194,510 L57,510 L57,187 Q57,84 111,35.5 Q165,-13 242,-13 Q327,-13 378,65 L386,0 L511,0 L511,510 L373,510 L373,234 Q372,167 340.5,137 Q309,107 274,107 M288,707 L446,707 L315,562 L226,562"/> 
            <glyph glyph-name="û" unicode="&#xFB;" horiz-adv-x="511" d=" M274,107 Q309,107 340.5,137 Q372,167 373,234 L373,510 L511,510 L511,0 L386,0 L378,65 Q327,-13 242,-13 Q165,-13 111,35.5 Q57,84 57,187 L57,510 L194,510 L194,194 Q194,151 217,129 Q240,107 274,107 M332,562 L284,624 L236,562 L126,562 L217,690 L353,690 L443,562"/> 
            <glyph glyph-name="ü" unicode="&#xFC;" horiz-adv-x="511" d=" M274,107 Q240,107 217,129 Q194,151 194,194 L194,510 L57,510 L57,187 Q57,84 111,35.5 Q165,-13 242,-13 Q327,-13 378,65 L386,0 L511,0 L511,510 L373,510 L373,234 Q372,167 340.5,137 Q309,107 274,107 M128,572 L128,689 L259,689 L259,572 M312,572 L312,689 L442,689 L442,572"/> 
            <glyph glyph-name="ý" unicode="&#xFD;" horiz-adv-x="480" d=" M185,31 L170,-18 Q158,-53 123,-53 Q99,-53 74,-34 L24,-134 Q67,-171 135,-171 Q256,-171 298,-42 L480,510 L346,510 L251,199 L148,510 L5,510 M258,707 L416,707 L285,562 L196,562"/> 
            <glyph glyph-name="þ" unicode="&#xFE;" horiz-adv-x="546" d=" M194,273 L194,234 Q195,197 207,169.5 Q219,142 237,128.5 Q255,115 271.5,109 Q288,103 301,103 Q352,103 381.5,144 Q411,185 411,256 Q411,326 381.5,369.5 Q352,413 302,413 Q269,413 232.5,379 Q196,345 194,273 M57,722 L194,722 L194,450 Q214,481 253,502.5 Q292,524 333,524 Q427,524 486.5,451 Q546,378 546,256 Q546,133 485.5,59.5 Q425,-14 324,-14 Q284,-14 247.5,7.5 Q211,29 192,57 L192,-171 L57,-171"/> 
            <glyph glyph-name="ÿ" unicode="&#xFF;" horiz-adv-x="480" d=" M185,31 L170,-18 Q158,-53 123,-53 Q99,-53 74,-34 L24,-134 Q67,-171 135,-171 Q256,-171 298,-42 L480,510 L346,510 L251,199 L148,510 L5,510 M93,572 L93,689 L224,689 L224,572 M277,572 L277,689 L407,689 L407,572"/> 
            <glyph glyph-name="Ā" unicode="&#x100;" horiz-adv-x="655" d=" M179,0 L226,158 L445,158 L492,0 L655,0 L420,722 L262,722 L20,0 M338,538 L406,292 L267,292 M481,772 L194,772 L194,862 L481,862"/> 
            <glyph glyph-name="ā" unicode="&#x101;" horiz-adv-x="560" d=" M356,341 L356,315 Q305,312 248,305 Q38,280 38,135 Q38,66 85.5,26 Q133,-14 198,-14 Q296,-14 372,64 Q377,28 401.5,8 Q426,-12 462,-12 Q503,-12 539,11 L560,118 Q540,108 515,108 Q486,108 486,138 L486,354 Q486,427 429.5,475.5 Q373,524 280,524 Q106,524 40,383 L143,322 Q151,353 183.5,385 Q216,417 273,417 Q312,417 334,394.5 Q356,372 356,341 M272,219 Q315,226 357,230 L357,208 Q351,151 309.5,124 Q268,97 229,97 Q203,97 187,110.5 Q171,124 171,148 Q171,202 272,219 M425,578 L123,578 L123,671 L425,671"/> 
            <glyph glyph-name="Ă" unicode="&#x102;" horiz-adv-x="655" d=" M226,158 L179,0 L20,0 L262,722 L420,722 L655,0 L492,0 L445,158 M406,292 L338,538 L267,292 M379,767 Q297,767 265.5,781.5 Q234,796 217,819 Q200,842 192,862.5 Q184,883 182,901 L282,901 Q288,848 338,848 Q388,848 394,901 L494,901 Q492,883 484,862.5 Q476,842 459,819 Q442,796 379,767"/> 
            <glyph glyph-name="ă" unicode="&#x103;" horiz-adv-x="560" d=" M356,315 L356,341 Q356,372 334,394.5 Q312,417 273,417 Q216,417 183.5,385 Q151,353 143,322 L40,383 Q106,524 280,524 Q373,524 429.5,475.5 Q486,427 486,354 L486,138 Q486,108 515,108 Q540,108 560,118 L539,11 Q503,-12 462,-12 Q426,-12 401.5,8 Q377,28 372,64 Q296,-14 198,-14 Q133,-14 85.5,26 Q38,66 38,135 Q38,280 248,305 Q305,312 356,315 M272,219 Q171,202 171,148 Q171,124 187,110.5 Q203,97 229,97 Q268,97 309.5,124 Q351,151 357,208 L357,230 Q315,226 272,219 M315,557 Q233,557 201.5,571.5 Q170,586 153,609 Q136,632 128,652.5 Q120,673 118,691 L218,691 Q224,638 274,638 Q324,638 330,691 L430,691 Q428,673 420,652.5 Q412,632 395,609 Q378,586 315,557"/> 
            <glyph glyph-name="Ą" unicode="&#x104;" horiz-adv-x="700" d=" M678,-77 L700,-164 Q656,-194 601,-194 Q545,-194 516.5,-166 Q488,-138 488,-99 Q488,-45 546,0 L492,0 L445,158 L226,158 L179,0 L20,0 L262,722 L420,722 L655,0 Q594,-43 594,-79 Q594,-102 618,-102 Q631,-102 646,-96 Q661,-90 670,-84 M406,292 L338,538 L267,292"/> 
            <glyph glyph-name="ą" unicode="&#x105;" horiz-adv-x="562" d=" M540,-77 L562,-164 Q518,-194 463,-194 Q407,-194 378.5,-166 Q350,-138 350,-99 Q350,-44 410,1 Q378,22 372,64 Q296,-14 198,-14 Q133,-14 85.5,26 Q38,66 38,135 Q38,280 248,305 Q305,312 356,315 L356,341 Q356,372 334,394.5 Q312,417 273,417 Q216,417 183.5,385 Q151,353 143,322 L40,383 Q106,524 280,524 Q373,524 429.5,475.5 Q486,427 486,354 L486,138 Q486,108 515,108 Q540,108 560,118 L539,11 Q528,4 517,0 Q456,-43 456,-79 Q456,-102 480,-102 Q493,-102 508,-96 Q523,-90 532,-84 M272,219 Q171,202 171,148 Q171,124 187,110.5 Q203,97 229,97 Q268,97 309.5,124 Q351,151 357,208 L357,230 Q315,226 272,219"/> 
            <glyph glyph-name="Ć" unicode="&#x106;" horiz-adv-x="705" d=" M575,259 L705,202 Q671,96 587.5,38 Q504,-20 391,-20 Q233,-20 139,83 Q45,186 45,358 Q45,529 140,635.5 Q235,742 395,742 Q504,742 581.5,683 Q659,624 691,522 L563,460 Q545,526 498.5,567 Q452,608 391,608 Q303,608 252.5,543 Q202,478 202,360 Q202,250 254,182.5 Q306,115 392,115 Q457,115 502,148.5 Q547,182 575,259 M433,772 L334,772 L400,900 L562,900"/> 
            <glyph glyph-name="ć" unicode="&#x107;" horiz-adv-x="508" d=" M508,361 L390,317 Q380,359 352,385 Q324,411 284,411 Q233,411 202,368.5 Q171,326 171,255 Q171,181 203,140.5 Q235,100 289,100 Q368,100 401,192 L507,135 Q477,66 418.5,26 Q360,-14 288,-14 Q174,-14 105.5,59.5 Q37,133 37,255 Q37,372 106,448 Q175,524 286,524 Q368,524 427.5,479.5 Q487,435 508,361 M288,707 L446,707 L315,562 L226,562"/> 
            <glyph glyph-name="Ĉ" unicode="&#x108;" horiz-adv-x="705" d=" M575,259 L705,202 Q671,96 587.5,38 Q504,-20 391,-20 Q233,-20 139,83 Q45,186 45,358 Q45,529 140,635.5 Q235,742 395,742 Q504,742 581.5,683 Q659,624 691,522 L563,460 Q545,526 498.5,567 Q452,608 391,608 Q303,608 252.5,543 Q202,478 202,360 Q202,250 254,182.5 Q306,115 392,115 Q457,115 502,148.5 Q547,182 575,259 M387,834 L333,772 L214,772 L309,899 L464,899 L560,772 L441,772"/> 
            <glyph glyph-name="ĉ" unicode="&#x109;" horiz-adv-x="508" d=" M508,361 L390,317 Q380,359 352,385 Q324,411 284,411 Q233,411 202,368.5 Q171,326 171,255 Q171,181 203,140.5 Q235,100 289,100 Q368,100 401,192 L507,135 Q477,66 418.5,26 Q360,-14 288,-14 Q174,-14 105.5,59.5 Q37,133 37,255 Q37,372 106,448 Q175,524 286,524 Q368,524 427.5,479.5 Q487,435 508,361 M332,562 L284,624 L236,562 L126,562 L217,690 L353,690 L443,562"/> 
            <glyph glyph-name="Ċ" unicode="&#x10A;" horiz-adv-x="705" d=" M575,259 L705,202 Q671,96 587.5,38 Q504,-20 391,-20 Q233,-20 139,83 Q45,186 45,358 Q45,529 140,635.5 Q235,742 395,742 Q504,742 581.5,683 Q659,624 691,522 L563,460 Q545,526 498.5,567 Q452,608 391,608 Q303,608 252.5,543 Q202,478 202,360 Q202,250 254,182.5 Q306,115 392,115 Q457,115 502,148.5 Q547,182 575,259 M316,774 L316,899 L459,899 L459,774"/> 
            <glyph glyph-name="ċ" unicode="&#x10B;" horiz-adv-x="508" d=" M508,361 L390,317 Q380,359 352,385 Q324,411 284,411 Q233,411 202,368.5 Q171,326 171,255 Q171,181 203,140.5 Q235,100 289,100 Q368,100 401,192 L507,135 Q477,66 418.5,26 Q360,-14 288,-14 Q174,-14 105.5,59.5 Q37,133 37,255 Q37,372 106,448 Q175,524 286,524 Q368,524 427.5,479.5 Q487,435 508,361 M208,570 L208,697 L351,697 L351,570"/> 
            <glyph glyph-name="Č" unicode="&#x10C;" horiz-adv-x="705" d=" M575,259 L705,202 Q671,96 587.5,38 Q504,-20 391,-20 Q233,-20 139,83 Q45,186 45,358 Q45,529 140,635.5 Q235,742 395,742 Q504,742 581.5,683 Q659,624 691,522 L563,460 Q545,526 498.5,567 Q452,608 391,608 Q303,608 252.5,543 Q202,478 202,360 Q202,250 254,182.5 Q306,115 392,115 Q457,115 502,148.5 Q547,182 575,259 M387,837 L441,899 L560,899 L465,772 L310,772 L214,899 L333,899"/> 
            <glyph glyph-name="č" unicode="&#x10D;" horiz-adv-x="508" d=" M508,361 L390,317 Q380,359 352,385 Q324,411 284,411 Q233,411 202,368.5 Q171,326 171,255 Q171,181 203,140.5 Q235,100 289,100 Q368,100 401,192 L507,135 Q477,66 418.5,26 Q360,-14 288,-14 Q174,-14 105.5,59.5 Q37,133 37,255 Q37,372 106,448 Q175,524 286,524 Q368,524 427.5,479.5 Q487,435 508,361 M284,628 L332,690 L443,690 L353,562 L217,562 L126,690 L236,690"/> 
            <glyph glyph-name="Ď" unicode="&#x10E;" horiz-adv-x="697" d=" M697,362 Q697,186 603,93 Q509,0 345,0 L75,0 L75,722 L372,722 Q522,722 609.5,631.5 Q697,541 697,362 M541,362 Q541,470 499,529 Q457,588 372,588 L231,588 L231,138 L360,138 Q541,138 541,362 M342,837 L396,899 L515,899 L420,772 L265,772 L169,899 L288,899"/> 
            <glyph glyph-name="ď" unicode="&#x10F;" horiz-adv-x="669" d=" M401,0 L393,48 Q338,-14 259,-14 Q153,-14 95,60 Q37,134 37,257 Q37,379 98,451.5 Q159,524 258,524 Q334,524 384,472 L384,722 L518,722 L518,0 M278,104 Q312,104 346.5,136.5 Q381,169 382,243 L382,274 Q381,343 346,374.5 Q311,406 275,406 Q224,406 198.5,366.5 Q173,327 173,257 Q173,186 199.5,145 Q226,104 278,104 M587,523 L559,567 Q571,571 578,574 Q585,577 594.5,587.5 Q604,598 608,615 L561,626 L561,722 L669,722 L669,648 Q669,549 587,523"/> 
            <glyph glyph-name="Đ" unicode="&#x110;" horiz-adv-x="717" d=" M267,403 L427,403 L427,316 L267,316 L267,138 L382,138 Q561,138 561,362 Q561,469 519.5,528.5 Q478,588 395,588 L267,588 M111,0 L111,316 L25,316 L25,403 L111,403 L111,722 L394,722 Q543,722 630,631.5 Q717,541 717,362 Q717,186 623,93 Q529,0 365,0"/> 
            <glyph glyph-name="đ" unicode="&#x111;" horiz-adv-x="575" d=" M401,0 L393,48 Q338,-14 259,-14 Q153,-14 95,60 Q37,134 37,257 Q37,379 98,451.5 Q159,524 258,524 Q334,524 384,472 L384,566 L218,566 L218,649 L384,649 L384,722 L518,722 L518,649 L575,649 L575,566 L518,566 L518,0 M278,104 Q312,104 346.5,136.5 Q381,169 382,243 L382,274 Q381,343 346,374.5 Q311,406 275,406 Q224,406 198.5,366.5 Q173,327 173,257 Q173,186 199.5,145 Q226,104 278,104"/> 
            <glyph glyph-name="Ē" unicode="&#x112;" horiz-adv-x="669" d=" M75,0 L75,722 L651,722 L651,586 L230,586 L230,433 L599,433 L599,299 L230,299 L230,141 L669,141 L669,0 M511,772 L224,772 L224,862 L511,862"/> 
            <glyph glyph-name="ē" unicode="&#x113;" horiz-adv-x="516" d=" M514,137 L399,177 Q366,99 287,99 Q235,99 204,135 Q173,171 175,223 L461,223 L514,227 Q516,251 516,261 Q516,376 452.5,450 Q389,524 282,524 Q168,524 102.5,448.5 Q37,373 37,256 Q37,131 107.5,58.5 Q178,-14 286,-14 Q366,-14 425.5,26.5 Q485,67 514,137 M237,415 Q321,415 348,388 Q375,361 375,323 L181,323 Q183,361 237,415 M435,578 L133,578 L133,671 L435,671"/> 
            <glyph glyph-name="Ĕ" unicode="&#x114;" horiz-adv-x="669" d=" M75,0 L75,722 L651,722 L651,586 L230,586 L230,433 L599,433 L599,299 L230,299 L230,141 L669,141 L669,0 M413,767 Q331,767 299.5,781.5 Q268,796 251,819 Q234,842 226,862.5 Q218,883 216,901 L316,901 Q322,848 372,848 Q422,848 428,901 L528,901 Q526,883 518,862.5 Q510,842 493,819 Q476,796 413,767"/> 
            <glyph glyph-name="ĕ" unicode="&#x115;" horiz-adv-x="516" d=" M399,177 L514,137 Q485,67 425.5,26.5 Q366,-14 286,-14 Q178,-14 107.5,58.5 Q37,131 37,256 Q37,373 102.5,448.5 Q168,524 282,524 Q389,524 452.5,450 Q516,376 516,261 L514,227 L461,223 L175,223 Q173,171 204,135 Q235,99 287,99 Q366,99 399,177 M321,415 Q237,415 210,388 Q183,361 181,323 L375,323 Q375,361 321,415 M323,557 Q241,557 209.5,571.5 Q178,586 161,609 Q144,632 136,652.5 Q128,673 126,691 L226,691 Q232,638 282,638 Q332,638 338,691 L438,691 Q436,673 428,652.5 Q420,632 403,609 Q386,586 323,557"/> 
            <glyph glyph-name="Ė" unicode="&#x116;" horiz-adv-x="669" d=" M75,0 L75,722 L651,722 L651,586 L230,586 L230,433 L599,433 L599,299 L230,299 L230,141 L669,141 L669,0 M296,774 L296,899 L439,899 L439,774"/> 
            <glyph glyph-name="ė" unicode="&#x117;" horiz-adv-x="516" d=" M514,137 L399,177 Q366,99 287,99 Q235,99 204,135 Q173,171 175,223 L461,223 L514,227 Q516,251 516,261 Q516,376 452.5,450 Q389,524 282,524 Q168,524 102.5,448.5 Q37,373 37,256 Q37,131 107.5,58.5 Q178,-14 286,-14 Q366,-14 425.5,26.5 Q485,67 514,137 M237,415 Q321,415 348,388 Q375,361 375,323 L181,323 Q183,361 237,415 M208,570 L208,697 L351,697 L351,570"/> 
            <glyph glyph-name="Ę" unicode="&#x118;" horiz-adv-x="714" d=" M75,0 L75,722 L651,722 L651,586 L230,586 L230,433 L599,433 L599,299 L230,299 L230,141 L669,141 L669,0 Q608,-43 608,-79 Q608,-102 632,-102 Q645,-102 660,-96 Q675,-90 684,-84 L692,-77 L714,-164 Q670,-194 615,-194 Q559,-194 530.5,-166 Q502,-138 502,-99 Q502,-43 557,0"/> 
            <glyph glyph-name="ę" unicode="&#x119;" horiz-adv-x="516" d=" M399,177 L514,137 Q489,78 445,41 Q379,-25 379,-77 Q379,-88 387,-95 Q395,-102 406,-102 Q419,-102 435.5,-96 Q452,-90 462,-84 L472,-77 L474,-166 Q424,-193 366,-193 Q323,-193 299,-170.5 Q275,-148 275,-109 Q275,-62 318,-12 Q296,-14 286,-14 Q178,-14 107.5,58.5 Q37,131 37,256 Q37,373 102.5,448.5 Q168,524 282,524 Q389,524 452.5,450 Q516,376 516,261 L514,227 L461,223 L175,223 Q173,171 204,135 Q235,99 287,99 Q366,99 399,177 M321,415 Q237,415 210,388 Q183,361 181,323 L375,323 Q375,361 321,415"/> 
            <glyph glyph-name="Ě" unicode="&#x11A;" horiz-adv-x="669" d=" M75,0 L75,722 L651,722 L651,586 L230,586 L230,433 L599,433 L599,299 L230,299 L230,141 L669,141 L669,0 M372,837 L426,899 L545,899 L450,772 L295,772 L199,899 L318,899"/> 
            <glyph glyph-name="ě" unicode="&#x11B;" horiz-adv-x="516" d=" M514,137 L399,177 Q366,99 287,99 Q235,99 204,135 Q173,171 175,223 L461,223 L514,227 Q516,251 516,261 Q516,376 452.5,450 Q389,524 282,524 Q168,524 102.5,448.5 Q37,373 37,256 Q37,131 107.5,58.5 Q178,-14 286,-14 Q366,-14 425.5,26.5 Q485,67 514,137 M237,415 Q321,415 348,388 Q375,361 375,323 L181,323 Q183,361 237,415 M284,628 L332,690 L443,690 L353,562 L217,562 L126,690 L236,690"/> 
            <glyph glyph-name="Ĝ" unicode="&#x11C;" horiz-adv-x="713" d=" M564,241 L564,274 L393,274 L393,400 L713,400 L713,0 L640,0 L601,89 Q512,-20 377,-20 Q222,-20 133.5,82.5 Q45,185 45,360 Q45,532 143,637 Q241,742 399,742 Q507,742 587,689.5 Q667,637 702,541 L574,472 Q552,538 507,574.5 Q462,611 396,611 Q300,611 251,542.5 Q202,474 202,360 Q202,246 249.5,178.5 Q297,111 392,111 Q451,111 501.5,147 Q552,183 564,241 M393,834 L339,772 L220,772 L315,899 L470,899 L566,772 L447,772"/> 
            <glyph glyph-name="ĝ" unicode="&#x11D;" horiz-adv-x="546" d=" M295,104 Q342,104 376,141.5 Q410,179 410,242 L410,271 Q410,327 376,367.5 Q342,408 292,408 Q238,408 206.5,367 Q175,326 175,257 Q175,189 208.5,146.5 Q242,104 295,104 M41,-40 L176,-40 Q196,-96 274,-96 Q344,-96 381.5,-50.5 Q419,-5 414,67 Q392,33 352,11.5 Q312,-10 263,-10 Q163,-10 101.5,61.5 Q40,133 40,257 Q40,379 102.5,451.5 Q165,524 265,524 Q359,524 424,443 L435,510 L546,510 L546,74 Q546,-58 473.5,-132.5 Q401,-207 268,-207 Q177,-207 114.5,-162.5 Q52,-118 41,-40 M348,562 L300,624 L252,562 L142,562 L233,690 L369,690 L459,562"/> 
            <glyph glyph-name="Ğ" unicode="&#x11E;" horiz-adv-x="713" d=" M564,241 L564,274 L393,274 L393,400 L713,400 L713,0 L640,0 L601,89 Q512,-20 377,-20 Q222,-20 133.5,82.5 Q45,185 45,360 Q45,532 143,637 Q241,742 399,742 Q507,742 587,689.5 Q667,637 702,541 L574,472 Q552,538 507,574.5 Q462,611 396,611 Q300,611 251,542.5 Q202,474 202,360 Q202,246 249.5,178.5 Q297,111 392,111 Q451,111 501.5,147 Q552,183 564,241 M439,767 Q357,767 325.5,781.5 Q294,796 277,819 Q260,842 252,862.5 Q244,883 242,901 L342,901 Q348,848 398,848 Q448,848 454,901 L554,901 Q552,883 544,862.5 Q536,842 519,819 Q502,796 439,767"/> 
            <glyph glyph-name="ğ" unicode="&#x11F;" horiz-adv-x="546" d=" M295,104 Q342,104 376,141.5 Q410,179 410,242 L410,271 Q410,327 376,367.5 Q342,408 292,408 Q238,408 206.5,367 Q175,326 175,257 Q175,189 208.5,146.5 Q242,104 295,104 M41,-40 L176,-40 Q196,-96 274,-96 Q344,-96 381.5,-50.5 Q419,-5 414,67 Q392,33 352,11.5 Q312,-10 263,-10 Q163,-10 101.5,61.5 Q40,133 40,257 Q40,379 102.5,451.5 Q165,524 265,524 Q359,524 424,443 L435,510 L546,510 L546,74 Q546,-58 473.5,-132.5 Q401,-207 268,-207 Q177,-207 114.5,-162.5 Q52,-118 41,-40 M330,557 Q248,557 216.5,571.5 Q185,586 168,609 Q151,632 143,652.5 Q135,673 133,691 L233,691 Q239,638 289,638 Q339,638 345,691 L445,691 Q443,673 435,652.5 Q427,632 410,609 Q393,586 330,557"/> 
            <glyph glyph-name="Ġ" unicode="&#x120;" horiz-adv-x="713" d=" M564,241 L564,274 L393,274 L393,400 L713,400 L713,0 L640,0 L601,89 Q512,-20 377,-20 Q222,-20 133.5,82.5 Q45,185 45,360 Q45,532 143,637 Q241,742 399,742 Q507,742 587,689.5 Q667,637 702,541 L574,472 Q552,538 507,574.5 Q462,611 396,611 Q300,611 251,542.5 Q202,474 202,360 Q202,246 249.5,178.5 Q297,111 392,111 Q451,111 501.5,147 Q552,183 564,241 M322,774 L322,899 L465,899 L465,774"/> 
            <glyph glyph-name="ġ" unicode="&#x121;" horiz-adv-x="546" d=" M295,104 Q242,104 208.5,146.5 Q175,189 175,257 Q175,326 206.5,367 Q238,408 292,408 Q342,408 376,367.5 Q410,327 410,271 L410,242 Q410,179 376,141.5 Q342,104 295,104 M176,-40 L41,-40 Q52,-118 114.5,-162.5 Q177,-207 268,-207 Q401,-207 473.5,-132.5 Q546,-58 546,74 L546,510 L435,510 L424,443 Q359,524 265,524 Q165,524 102.5,451.5 Q40,379 40,257 Q40,133 101.5,61.5 Q163,-10 263,-10 Q312,-10 352,11.5 Q392,33 414,67 Q419,-5 381.5,-50.5 Q344,-96 274,-96 Q196,-96 176,-40 M219,570 L219,697 L362,697 L362,570"/> 
            <glyph glyph-name="Ģ" unicode="&#x122;" horiz-adv-x="713" d=" M564,241 L564,274 L393,274 L393,400 L713,400 L713,0 L640,0 L601,89 Q512,-20 377,-20 Q222,-20 133.5,82.5 Q45,185 45,360 Q45,532 143,637 Q241,742 399,742 Q507,742 587,689.5 Q667,637 702,541 L574,472 Q552,538 507,574.5 Q462,611 396,611 Q300,611 251,542.5 Q202,474 202,360 Q202,246 249.5,178.5 Q297,111 392,111 Q451,111 501.5,147 Q552,183 564,241 M370,-256 L339,-216 Q359,-206 369.5,-193.5 Q380,-181 380,-158 L322,-136 L322,-45 L440,-45 L440,-130 Q440,-217 370,-256"/> 
            <glyph glyph-name="ģ" unicode="&#x123;" horiz-adv-x="546" d=" M295,104 Q242,104 208.5,146.5 Q175,189 175,257 Q175,326 206.5,367 Q238,408 292,408 Q342,408 376,367.5 Q410,327 410,271 L410,242 Q410,179 376,141.5 Q342,104 295,104 M176,-40 L41,-40 Q52,-118 114.5,-162.5 Q177,-207 268,-207 Q401,-207 473.5,-132.5 Q546,-58 546,74 L546,510 L435,510 L424,443 Q359,524 265,524 Q165,524 102.5,451.5 Q40,379 40,257 Q40,133 101.5,61.5 Q163,-10 263,-10 Q312,-10 352,11.5 Q392,33 414,67 Q419,-5 381.5,-50.5 Q344,-96 274,-96 Q196,-96 176,-40 M300,774 L331,734 Q311,724 300.5,711.5 Q290,699 290,676 L348,654 L348,563 L230,563 L230,648 Q230,735 300,774"/> 
            <glyph glyph-name="Ĥ" unicode="&#x124;" horiz-adv-x="678" d=" M522,0 L522,307 L231,307 L231,0 L75,0 L75,722 L231,722 L231,448 L522,448 L522,722 L678,722 L678,0 M376,834 L322,772 L203,772 L298,899 L453,899 L549,772 L430,772"/> 
            <glyph glyph-name="ĥ" unicode="&#x125;" horiz-adv-x="511" d=" M293,410 Q279,410 264.5,405 Q250,400 233.5,387.5 Q217,375 206,347 Q195,319 194,280 L194,0 L57,0 L57,722 L194,722 L194,464 Q218,489 254,506.5 Q290,524 327,524 Q363,524 394,514.5 Q425,505 452,484.5 Q479,464 495,425 Q511,386 511,333 L511,0 L373,0 L373,324 Q373,367 350.5,388.5 Q328,410 293,410 M289,772 L241,834 L193,772 L83,772 L174,900 L310,900 L400,772"/> 
            <glyph glyph-name="Ħ" unicode="&#x126;" horiz-adv-x="753" d=" M522,0 L522,307 L231,307 L231,0 L75,0 L75,542 L0,542 L0,629 L75,629 L75,722 L231,722 L231,629 L522,629 L522,722 L678,722 L678,629 L753,629 L753,542 L678,542 L678,0 M231,448 L522,448 L522,542 L231,542"/> 
            <glyph glyph-name="ħ" unicode="&#x127;" horiz-adv-x="511" d=" M293,410 Q279,410 264.5,405 Q250,400 233.5,387.5 Q217,375 206,347 Q195,319 194,280 L194,0 L57,0 L57,566 L0,566 L0,649 L57,649 L57,722 L194,722 L194,649 L357,649 L357,566 L194,566 L194,464 Q218,489 254,506.5 Q290,524 327,524 Q363,524 394,514.5 Q425,505 452,484.5 Q479,464 495,425 Q511,386 511,333 L511,0 L373,0 L373,324 Q373,367 350.5,388.5 Q328,410 293,410"/> 
            <glyph glyph-name="Ĩ" unicode="&#x128;" horiz-adv-x="334" d=" M85,722 L85,0 L241,0 L241,722 M261,902 L334,889 Q328,840 303.5,804 Q279,768 230,768 Q206,768 165,789.5 Q124,811 101,811 Q88,811 77,799.5 Q66,788 65,771 L-8,784 Q-2,833 22.5,869 Q47,905 96,905 Q120,905 162.5,883.5 Q205,862 225,862 Q238,862 249,873.5 Q260,885 261,902"/> 
            <glyph glyph-name="ĩ" unicode="&#x129;" horiz-adv-x="312" d=" M65,0 L65,510 L202,510 L202,0 M236,699 L312,686 Q296,558 203,558 Q178,558 135,579 Q92,600 70,600 Q56,600 44.5,588.5 Q33,577 32,560 L-44,573 Q-28,701 65,701 Q90,701 134,680 Q178,659 198,659 Q212,659 223.5,670.5 Q235,682 236,699"/> 
            <glyph glyph-name="Ī" unicode="&#x12A;" horiz-adv-x="306" d=" M85,722 L85,0 L241,0 L241,722 M306,772 L19,772 L19,862 L306,862"/> 
            <glyph glyph-name="ī" unicode="&#x12B;" horiz-adv-x="284" d=" M65,0 L65,510 L202,510 L202,0 M284,578 L-18,578 L-18,671 L284,671"/> 
            <glyph glyph-name="Ĭ" unicode="&#x12C;" horiz-adv-x="319" d=" M85,0 L85,722 L241,722 L241,0 M204,767 Q122,767 90.5,781.5 Q59,796 42,819 Q25,842 17,862.5 Q9,883 7,901 L107,901 Q113,848 163,848 Q213,848 219,901 L319,901 Q317,883 309,862.5 Q301,842 284,819 Q267,796 204,767"/> 
            <glyph glyph-name="ĭ" unicode="&#x12D;" horiz-adv-x="288" d=" M65,0 L65,510 L202,510 L202,0 M173,557 Q91,557 59.5,571.5 Q28,586 11,609 Q-6,632 -14,652.5 Q-22,673 -24,691 L76,691 Q82,638 132,638 Q182,638 188,691 L288,691 Q286,673 278,652.5 Q270,632 253,609 Q236,586 173,557"/> 
            <glyph glyph-name="Į" unicode="&#x12E;" horiz-adv-x="286" d=" M264,-77 L286,-164 Q242,-194 187,-194 Q131,-194 102.5,-166 Q74,-138 74,-99 Q74,-45 132,0 L85,0 L85,722 L241,722 L241,0 Q180,-43 180,-79 Q180,-102 204,-102 Q217,-102 232,-96 Q247,-90 256,-84"/> 
            <glyph glyph-name="į" unicode="&#x12F;" horiz-adv-x="244" d=" M222,-77 L244,-164 Q200,-194 145,-194 Q89,-194 60.5,-166 Q32,-138 32,-99 Q32,-45 90,0 L62,0 L62,510 L199,510 L199,0 Q138,-43 138,-79 Q138,-102 162,-102 Q175,-102 190,-96 Q205,-90 214,-84 M64,582 L64,707 L197,707 L197,582"/> 
            <glyph glyph-name="İ" unicode="&#x130;" horiz-adv-x="241" d=" M85,722 L85,0 L241,0 L241,722 M91,774 L91,899 L234,899 L234,774"/> 
            <glyph glyph-name="ı" unicode="&#x131;" horiz-adv-x="202" d=" M65,0 L65,510 L202,510 L202,0"/> 
            <glyph glyph-name="Ĵ" unicode="&#x134;" horiz-adv-x="451" d=" M294,187 L294,722 L451,722 L451,207 Q451,103 394,41.5 Q337,-20 223,-20 Q137,-20 83.5,31.5 Q30,83 30,170 L30,237 L173,237 L173,179 Q173,147 187.5,128.5 Q202,110 228,110 Q294,110 294,187 M268,834 L214,772 L95,772 L190,899 L345,899 L441,772 L322,772"/> 
            <glyph glyph-name="ĵ" unicode="&#x135;" horiz-adv-x="310" d=" M10,-151 L2,-40 Q28,-58 49,-58 Q83,-58 83,-26 L83,510 L220,510 L220,-13 Q220,-57 206.5,-89 Q193,-121 170.5,-137.5 Q148,-154 125,-161.5 Q102,-169 78,-169 Q42,-169 10,-151 M199,562 L151,624 L103,562 L-7,562 L84,690 L220,690 L310,562"/> 
            <glyph glyph-name="Ķ" unicode="&#x136;" horiz-adv-x="683" d=" M229,0 L75,0 L75,722 L228,722 L228,391 L479,722 L668,722 L413,414 L683,0 L500,0 L310,303 L229,208 M345,-254 L314,-214 Q334,-204 344.5,-191.5 Q355,-179 355,-156 L297,-134 L297,-43 L415,-43 L415,-128 Q415,-215 345,-254"/> 
            <glyph glyph-name="ķ" unicode="&#x137;" horiz-adv-x="530" d=" M252,203 L193,137 L193,0 L57,0 L57,722 L190,722 L190,294 L358,510 L523,510 L342,301 L530,0 L374,0 M265,-254 L234,-214 Q254,-204 264.5,-191.5 Q275,-179 275,-156 L217,-134 L217,-43 L335,-43 L335,-128 Q335,-215 265,-254"/> 
            <glyph glyph-name="Ĺ" unicode="&#x139;" horiz-adv-x="598" d=" M230,139 L230,722 L75,722 L75,0 L598,0 L598,139 M193,772 L94,772 L160,900 L322,900"/> 
            <glyph glyph-name="ĺ" unicode="&#x13A;" horiz-adv-x="307" d=" M62,0 L62,722 L199,722 L199,0 M178,772 L79,772 L145,900 L307,900"/> 
            <glyph glyph-name="Ļ" unicode="&#x13B;" horiz-adv-x="598" d=" M230,722 L230,139 L598,139 L598,0 L75,0 L75,722 M330,-254 L299,-214 Q319,-204 329.5,-191.5 Q340,-179 340,-156 L282,-134 L282,-43 L400,-43 L400,-128 Q400,-215 330,-254"/> 
            <glyph glyph-name="ļ" unicode="&#x13C;" horiz-adv-x="199" d=" M62,0 L62,722 L199,722 L199,0 M117,-254 L86,-214 Q106,-204 116.5,-191.5 Q127,-179 127,-156 L69,-134 L69,-43 L187,-43 L187,-128 Q187,-215 117,-254"/> 
            <glyph glyph-name="Ľ" unicode="&#x13D;" horiz-adv-x="598" d=" M230,139 L230,722 L75,722 L75,0 L598,0 L598,139 M325,573 L297,617 Q309,621 316,624 Q323,627 332.5,637.5 Q342,648 346,665 L299,676 L299,772 L407,772 L407,698 Q407,599 325,573"/> 
            <glyph glyph-name="ľ" unicode="&#x13E;" horiz-adv-x="349" d=" M62,0 L62,722 L199,722 L199,0 M267,523 L239,567 Q251,571 258,574 Q265,577 274.5,587.5 Q284,598 288,615 L241,626 L241,722 L349,722 L349,648 Q349,549 267,523"/> 
            <glyph glyph-name="Ŀ" unicode="&#x13F;" horiz-adv-x="598" d=" M230,722 L230,139 L598,139 L598,0 L75,0 L75,722 M326,244 L326,408 L482,408 L482,244"/> 
            <glyph glyph-name="ŀ" unicode="&#x140;" horiz-adv-x="425" d=" M62,0 L62,722 L199,722 L199,0 M269,244 L269,408 L425,408 L425,244"/> 
            <glyph glyph-name="Ł" unicode="&#x141;" horiz-adv-x="596" d=" M242,139 L596,139 L596,0 L87,0 L87,196 L21,150 L21,263 L87,307 L87,722 L242,722 L242,405 L431,525 L431,415 L242,295"/> 
            <glyph glyph-name="ł" unicode="&#x142;" horiz-adv-x="273" d=" M76,196 L19,137 L19,260 L76,318 L76,722 L212,722 L212,464 L273,530 L273,404 L212,339 L212,0 L76,0"/> 
            <glyph glyph-name="Ń" unicode="&#x143;" horiz-adv-x="685" d=" M685,0 L536,0 L225,511 L225,0 L75,0 L75,722 L254,722 L538,255 L538,722 L685,722 M433,772 L334,772 L400,900 L562,900"/> 
            <glyph glyph-name="ń" unicode="&#x144;" horiz-adv-x="511" d=" M293,409 Q328,409 350.5,385.5 Q373,362 373,323 L373,0 L511,0 L511,333 Q511,426 461.5,475 Q412,524 327,524 Q285,524 246,499 Q207,474 188,438 L174,510 L57,510 L57,0 L194,0 L194,279 Q197,353 228,381 Q259,409 293,409 M298,707 L456,707 L325,562 L236,562"/> 
            <glyph glyph-name="Ņ" unicode="&#x145;" horiz-adv-x="685" d=" M685,0 L536,0 L225,511 L225,0 L75,0 L75,722 L254,722 L538,255 L538,722 L685,722 M370,-254 L339,-214 Q359,-204 369.5,-191.5 Q380,-179 380,-156 L322,-134 L322,-43 L440,-43 L440,-128 Q440,-215 370,-254"/> 
            <glyph glyph-name="ņ" unicode="&#x146;" horiz-adv-x="511" d=" M293,409 Q259,409 228,381 Q197,353 194,279 L194,0 L57,0 L57,510 L174,510 L188,438 Q207,474 246,499 Q285,524 327,524 Q412,524 461.5,475 Q511,426 511,333 L511,0 L373,0 L373,323 Q373,362 350.5,385.5 Q328,409 293,409 M270,-254 L239,-214 Q259,-204 269.5,-191.5 Q280,-179 280,-156 L222,-134 L222,-43 L340,-43 L340,-128 Q340,-215 270,-254"/> 
            <glyph glyph-name="Ň" unicode="&#x147;" horiz-adv-x="685" d=" M685,0 L536,0 L225,511 L225,0 L75,0 L75,722 L254,722 L538,255 L538,722 L685,722 M382,837 L436,899 L555,899 L460,772 L305,772 L209,899 L328,899"/> 
            <glyph glyph-name="ň" unicode="&#x148;" horiz-adv-x="511" d=" M293,409 Q328,409 350.5,385.5 Q373,362 373,323 L373,0 L511,0 L511,333 Q511,426 461.5,475 Q412,524 327,524 Q285,524 246,499 Q207,474 188,438 L174,510 L57,510 L57,0 L194,0 L194,279 Q197,353 228,381 Q259,409 293,409 M289,628 L337,690 L448,690 L358,562 L222,562 L131,690 L241,690"/> 
            <glyph glyph-name="Ŋ" unicode="&#x14A;" horiz-adv-x="685" d=" M538,0 L225,511 L225,0 L75,0 L75,722 L254,722 L538,255 L538,722 L685,722 L685,15 Q685,-86 628.5,-144.5 Q572,-203 468,-203 Q386,-203 337,-151.5 Q288,-100 286,-20 L418,-20 Q419,-46 433.5,-61.5 Q448,-77 474,-77 Q505,-77 522.5,-56.5 Q540,-36 538,0"/> 
            <glyph glyph-name="ŋ" unicode="&#x14B;" horiz-adv-x="511" d=" M301,-151 L293,-40 Q316,-58 339,-58 Q373,-58 373,-26 L373,323 Q373,362 350.5,385.5 Q328,409 293,409 Q259,409 228,381 Q197,353 194,279 L194,0 L57,0 L57,510 L174,510 L188,438 Q207,474 246,499 Q285,524 327,524 Q412,524 461.5,475 Q511,426 511,333 L511,-13 Q511,-57 497.5,-89 Q484,-121 461.5,-137.5 Q439,-154 416,-161.5 Q393,-169 369,-169 Q333,-169 301,-151"/> 
            <glyph glyph-name="Ō" unicode="&#x14C;" horiz-adv-x="741" d=" M45,359 Q45,185 140,82.5 Q235,-20 394,-20 Q546,-20 643.5,81.5 Q741,183 741,359 Q741,531 644.5,636.5 Q548,742 394,742 Q239,742 142,636.5 Q45,531 45,359 M202,359 Q202,473 252,542 Q302,611 394,611 Q487,611 535,540.5 Q583,470 583,359 Q583,238 532,174.5 Q481,111 394,111 Q299,111 250.5,179 Q202,247 202,359 M536,772 L249,772 L249,862 L536,862"/> 
            <glyph glyph-name="ō" unicode="&#x14D;" horiz-adv-x="535" d=" M38,256 Q38,132 103.5,59 Q169,-14 286,-14 Q399,-14 467,60 Q535,134 535,259 Q535,382 466,453 Q397,524 286,524 Q171,524 104.5,449 Q38,374 38,256 M175,258 Q175,324 204,369.5 Q233,415 286,415 Q339,415 369,371.5 Q399,328 399,258 Q399,186 370,142.5 Q341,99 286,99 Q232,99 203.5,142.5 Q175,186 175,258 M435,578 L133,578 L133,671 L435,671"/> 
            <glyph glyph-name="Ŏ" unicode="&#x14E;" horiz-adv-x="741" d=" M45,359 Q45,531 142,636.5 Q239,742 394,742 Q548,742 644.5,636.5 Q741,531 741,359 Q741,183 643.5,81.5 Q546,-20 394,-20 Q235,-20 140,82.5 Q45,185 45,359 M202,359 Q202,247 250.5,179 Q299,111 394,111 Q481,111 532,174.5 Q583,238 583,359 Q583,470 535,540.5 Q487,611 394,611 Q302,611 252,542 Q202,473 202,359 M434,767 Q352,767 320.5,781.5 Q289,796 272,819 Q255,842 247,862.5 Q239,883 237,901 L337,901 Q343,848 393,848 Q443,848 449,901 L549,901 Q547,883 539,862.5 Q531,842 514,819 Q497,796 434,767"/> 
            <glyph glyph-name="ŏ" unicode="&#x14F;" horiz-adv-x="535" d=" M38,256 Q38,374 104.5,449 Q171,524 286,524 Q397,524 466,453 Q535,382 535,259 Q535,134 467,60 Q399,-14 286,-14 Q169,-14 103.5,59 Q38,132 38,256 M175,258 Q175,186 203.5,142.5 Q232,99 286,99 Q341,99 370,142.5 Q399,186 399,258 Q399,328 369,371.5 Q339,415 286,415 Q233,415 204,369.5 Q175,324 175,258 M327,557 Q245,557 213.5,571.5 Q182,586 165,609 Q148,632 140,652.5 Q132,673 130,691 L230,691 Q236,638 286,638 Q336,638 342,691 L442,691 Q440,673 432,652.5 Q424,632 407,609 Q390,586 327,557"/> 
            <glyph glyph-name="Ő" unicode="&#x150;" horiz-adv-x="741" d=" M45,359 Q45,185 140,82.5 Q235,-20 394,-20 Q546,-20 643.5,81.5 Q741,183 741,359 Q741,531 644.5,636.5 Q548,742 394,742 Q239,742 142,636.5 Q45,531 45,359 M202,359 Q202,473 252,542 Q302,611 394,611 Q487,611 535,540.5 Q583,470 583,359 Q583,238 532,174.5 Q481,111 394,111 Q299,111 250.5,179 Q202,247 202,359 M345,772 L269,772 L333,900 L454,900 M517,772 L438,772 L504,900 L622,900"/> 
            <glyph glyph-name="ő" unicode="&#x151;" horiz-adv-x="535" d=" M38,256 Q38,132 103.5,59 Q169,-14 286,-14 Q399,-14 467,60 Q535,134 535,259 Q535,382 466,453 Q397,524 286,524 Q171,524 104.5,449 Q38,374 38,256 M175,258 Q175,324 204,369.5 Q233,415 286,415 Q339,415 369,371.5 Q399,328 399,258 Q399,186 370,142.5 Q341,99 286,99 Q232,99 203.5,142.5 Q175,186 175,258 M242,562 L167,562 L232,707 L352,707 M404,562 L326,562 L393,707 L510,707"/> 
            <glyph glyph-name="Œ" unicode="&#x152;" horiz-adv-x="1007" d=" M438,138 L438,590 Q326,590 261,531.5 Q196,473 196,360 Q196,249 260.5,193.5 Q325,138 438,138 M1007,0 L449,0 Q273,0 159,94.5 Q45,189 45,359 Q45,535 158,628.5 Q271,722 461,722 L989,722 L989,586 L593,586 L593,433 L937,433 L937,299 L593,299 L593,141 L1007,141"/> 
            <glyph glyph-name="œ" unicode="&#x153;" horiz-adv-x="876" d=" M757,176 L873,135 Q844,66 784.5,26 Q725,-14 646,-14 Q534,-14 466,59 Q398,-14 286,-14 Q169,-14 103.5,59 Q38,132 38,256 Q38,374 104.5,449 Q171,524 286,524 Q399,524 466,452 Q532,524 643,524 Q752,524 814,450.5 Q876,377 876,261 L874,226 L823,223 L535,223 Q535,171 566,135 Q597,99 647,99 Q724,99 757,176 M175,258 Q175,186 203.5,142.5 Q232,99 286,99 Q341,99 370,142.5 Q399,186 399,258 Q399,328 369,371.5 Q339,415 286,415 Q233,415 204,369.5 Q175,324 175,258 M639,415 Q598,415 571.5,387.5 Q545,360 541,323 L735,323 Q734,363 707.5,389 Q681,415 639,415"/> 
            <glyph glyph-name="Ŕ" unicode="&#x154;" horiz-adv-x="704" d=" M372,287 L231,287 L231,0 L75,0 L75,722 L432,722 Q542,722 608,667.5 Q674,613 674,520 Q674,461 633.5,415.5 Q593,370 535,345 Q643,301 648,187 Q654,45 704,0 L534,0 Q493,37 491,181 Q490,233 459,260 Q428,287 372,287 M432,587 L231,587 L231,420 L410,420 Q460,420 489,442.5 Q518,465 518,506 Q518,543 493.5,565 Q469,587 432,587 M378,772 L279,772 L345,900 L507,900"/> 
            <glyph glyph-name="ŕ" unicode="&#x155;" horiz-adv-x="381" d=" M165,510 L183,423 Q229,521 293,521 Q322,521 345,505.5 Q368,490 380,469 L313,357 Q307,371 293.5,382 Q280,393 266,393 Q234,393 214,358.5 Q194,324 194,260 L194,0 L57,0 L57,510 M223,707 L381,707 L250,562 L161,562"/> 
            <glyph glyph-name="Ŗ" unicode="&#x156;" horiz-adv-x="704" d=" M372,287 L231,287 L231,0 L75,0 L75,722 L432,722 Q542,722 608,667.5 Q674,613 674,520 Q674,461 633.5,415.5 Q593,370 535,345 Q643,301 648,187 Q654,45 704,0 L534,0 Q493,37 491,181 Q490,233 459,260 Q428,287 372,287 M432,587 L231,587 L231,420 L410,420 Q460,420 489,442.5 Q518,465 518,506 Q518,543 493.5,565 Q469,587 432,587 M360,-254 L329,-214 Q349,-204 359.5,-191.5 Q370,-179 370,-156 L312,-134 L312,-43 L430,-43 L430,-128 Q430,-215 360,-254"/> 
            <glyph glyph-name="ŗ" unicode="&#x157;" horiz-adv-x="380" d=" M165,510 L183,423 Q229,521 293,521 Q322,521 345,505.5 Q368,490 380,469 L313,357 Q307,371 293.5,382 Q280,393 266,393 Q234,393 214,358.5 Q194,324 194,260 L194,0 L57,0 L57,510 M110,-254 L79,-214 Q99,-204 109.5,-191.5 Q120,-179 120,-156 L62,-134 L62,-43 L180,-43 L180,-128 Q180,-215 110,-254"/> 
            <glyph glyph-name="Ř" unicode="&#x158;" horiz-adv-x="704" d=" M372,287 L231,287 L231,0 L75,0 L75,722 L432,722 Q542,722 608,667.5 Q674,613 674,520 Q674,461 633.5,415.5 Q593,370 535,345 Q643,301 648,187 Q654,45 704,0 L534,0 Q493,37 491,181 Q490,233 459,260 Q428,287 372,287 M432,587 L231,587 L231,420 L410,420 Q460,420 489,442.5 Q518,465 518,506 Q518,543 493.5,565 Q469,587 432,587 M347,837 L401,899 L520,899 L425,772 L270,772 L174,899 L293,899"/> 
            <glyph glyph-name="ř" unicode="&#x159;" horiz-adv-x="380" d=" M165,510 L183,423 Q229,521 293,521 Q322,521 345,505.5 Q368,490 380,469 L313,357 Q307,371 293.5,382 Q280,393 266,393 Q234,393 214,358.5 Q194,324 194,260 L194,0 L57,0 L57,510 M212,628 L260,690 L371,690 L281,562 L145,562 L54,690 L164,690"/> 
            <glyph glyph-name="Ś" unicode="&#x15A;" horiz-adv-x="662" d=" M350,741 Q456,741 539,693 Q622,645 657,571 L544,493 Q542,498 537,506 Q532,514 514,534 Q496,554 475.5,569.5 Q455,585 421,598 Q387,611 350,611 Q287,611 253,589.5 Q219,568 219,531 Q219,475 323,448 Q396,428 470,413 Q552,396 607,349 Q662,302 662,215 Q662,110 579.5,45.5 Q497,-19 370,-19 Q322,-19 274.5,-8.5 Q227,2 177,25.5 Q127,49 88.5,96.5 Q50,144 33,209 L165,256 Q176,231 186,214.5 Q196,198 219.5,172 Q243,146 281.5,132 Q320,118 370,118 Q434,118 469,143 Q504,168 504,204 Q504,261 422,277 Q333,295 263,315 Q67,371 67,525 Q67,626 148,683.5 Q229,741 350,741 M393,772 L294,772 L360,900 L522,900"/> 
            <glyph glyph-name="ś" unicode="&#x15B;" horiz-adv-x="482" d=" M351,146 Q351,177 305,187 Q241,201 199,212 Q50,253 50,364 Q50,436 108.5,479.5 Q167,523 259,523 Q330,523 385,493 Q440,463 474,419 L392,336 Q338,413 255,413 Q219,413 199,401 Q179,389 179,368 Q179,340 241,325 Q274,317 340,303 Q400,290 441,255.5 Q482,221 482,156 Q482,81 422.5,34 Q363,-13 270,-13 Q185,-13 115.5,29.5 Q46,72 29,127 L124,197 Q126,186 141.5,165 Q157,144 193,121.5 Q229,99 272,99 Q311,99 331,113 Q351,127 351,146 M268,707 L426,707 L295,562 L206,562"/> 
            <glyph glyph-name="Ŝ" unicode="&#x15C;" horiz-adv-x="662" d=" M350,741 Q456,741 539,693 Q622,645 657,571 L544,493 Q542,498 537,506 Q532,514 514,534 Q496,554 475.5,569.5 Q455,585 421,598 Q387,611 350,611 Q287,611 253,589.5 Q219,568 219,531 Q219,475 323,448 Q396,428 470,413 Q552,396 607,349 Q662,302 662,215 Q662,110 579.5,45.5 Q497,-19 370,-19 Q322,-19 274.5,-8.5 Q227,2 177,25.5 Q127,49 88.5,96.5 Q50,144 33,209 L165,256 Q176,231 186,214.5 Q196,198 219.5,172 Q243,146 281.5,132 Q320,118 370,118 Q434,118 469,143 Q504,168 504,204 Q504,261 422,277 Q333,295 263,315 Q67,371 67,525 Q67,626 148,683.5 Q229,741 350,741 M352,834 L298,772 L179,772 L274,899 L429,899 L525,772 L406,772"/> 
            <glyph glyph-name="ŝ" unicode="&#x15D;" horiz-adv-x="482" d=" M351,146 Q351,177 305,187 Q241,201 199,212 Q50,253 50,364 Q50,436 108.5,479.5 Q167,523 259,523 Q330,523 385,493 Q440,463 474,419 L392,336 Q338,413 255,413 Q219,413 199,401 Q179,389 179,368 Q179,340 241,325 Q274,317 340,303 Q400,290 441,255.5 Q482,221 482,156 Q482,81 422.5,34 Q363,-13 270,-13 Q185,-13 115.5,29.5 Q46,72 29,127 L124,197 Q126,186 141.5,165 Q157,144 193,121.5 Q229,99 272,99 Q311,99 331,113 Q351,127 351,146 M304,562 L256,624 L208,562 L98,562 L189,690 L325,690 L415,562"/> 
            <glyph glyph-name="Ş" unicode="&#x15E;" horiz-adv-x="662" d=" M281,-98 L301,-14 Q258,-8 219,6.5 Q180,21 142,46.5 Q104,72 75.5,113.5 Q47,155 33,209 L165,256 Q176,231 186,214.5 Q196,198 219.5,172 Q243,146 281.5,132 Q320,118 370,118 Q434,118 469,143 Q504,168 504,204 Q504,261 422,277 Q333,295 263,315 Q67,371 67,525 Q67,626 148,683.5 Q229,741 350,741 Q456,741 539,693 Q622,645 657,571 L544,493 Q542,498 537,506 Q532,514 514,534 Q496,554 475.5,569.5 Q455,585 421,598 Q387,611 350,611 Q287,611 253,589.5 Q219,568 219,531 Q219,475 323,448 Q396,428 470,413 Q552,396 607,349 Q662,302 662,215 Q662,110 579.5,45.5 Q497,-19 370,-19 L366,-40 L372,-40 Q410,-40 436,-60 Q462,-80 462,-117 Q462,-158 426,-183.5 Q390,-209 332,-209 Q300,-209 265.5,-197 Q231,-185 219,-169 L263,-110 Q297,-140 335,-140 Q352,-140 363.5,-133.5 Q375,-127 375,-117 Q375,-98 345,-98"/> 
            <glyph glyph-name="ş" unicode="&#x15F;" horiz-adv-x="482" d=" M191,-98 L212,-7 Q145,5 94,43.5 Q43,82 29,127 L124,197 Q126,186 141.5,165 Q157,144 193,121.5 Q229,99 272,99 Q311,99 331,113 Q351,127 351,146 Q351,177 305,187 Q241,201 199,212 Q50,253 50,364 Q50,436 108.5,479.5 Q167,523 259,523 Q330,523 385,493 Q440,463 474,419 L392,336 Q338,413 255,413 Q219,413 199,401 Q179,389 179,368 Q179,340 241,325 Q274,317 340,303 Q400,290 441,255.5 Q482,221 482,156 Q482,84 426,37.5 Q370,-9 282,-13 L276,-40 L282,-40 Q320,-40 346,-60 Q372,-80 372,-117 Q372,-158 336,-183.5 Q300,-209 242,-209 Q210,-209 175.5,-197 Q141,-185 129,-169 L173,-110 Q207,-140 245,-140 Q262,-140 273.5,-133.5 Q285,-127 285,-117 Q285,-98 255,-98"/> 
            <glyph glyph-name="Š" unicode="&#x160;" horiz-adv-x="662" d=" M350,741 Q456,741 539,693 Q622,645 657,571 L544,493 Q542,498 537,506 Q532,514 514,534 Q496,554 475.5,569.5 Q455,585 421,598 Q387,611 350,611 Q287,611 253,589.5 Q219,568 219,531 Q219,475 323,448 Q396,428 470,413 Q552,396 607,349 Q662,302 662,215 Q662,110 579.5,45.5 Q497,-19 370,-19 Q322,-19 274.5,-8.5 Q227,2 177,25.5 Q127,49 88.5,96.5 Q50,144 33,209 L165,256 Q176,231 186,214.5 Q196,198 219.5,172 Q243,146 281.5,132 Q320,118 370,118 Q434,118 469,143 Q504,168 504,204 Q504,261 422,277 Q333,295 263,315 Q67,371 67,525 Q67,626 148,683.5 Q229,741 350,741 M347,837 L401,899 L520,899 L425,772 L270,772 L174,899 L293,899"/> 
            </font>
</defs>
</svg>
